<svg width="32" height="32" viewBox="0 0 32 32" fill="none" xmlns="http://www.w3.org/2000/svg">
<path d="M22.93 28.8333H9.06999C7.50433 28.8333 6.00279 28.2113 4.8957 27.1042C3.78861 25.9971 3.16666 24.4956 3.16666 22.9299C3.16703 21.472 3.70687 20.0658 4.68221 18.9821L13.6655 8.99658H18.3344L27.3178 18.9821C28.2931 20.0658 28.833 21.472 28.8333 22.9299C28.8333 24.4956 28.2114 25.9971 27.1043 27.1042C25.9972 28.2113 24.4957 28.8333 22.93 28.8333Z" stroke="white" stroke-width="2" stroke-miterlimit="10" stroke-linecap="square"/>
<path d="M20.6689 3.16656L20.1922 5.61101C19.9897 6.57154 19.4621 7.43283 18.6984 8.04958C17.9347 8.66633 16.9816 9.0008 16 8.99656C15.0115 8.99851 14.053 8.65709 13.2884 8.03066C12.5237 7.40423 12.0004 6.53167 11.8078 5.56212L11.3311 3.11768L20.6689 3.16656Z" stroke="white" stroke-width="2" stroke-miterlimit="10" stroke-linecap="square"/>
<path d="M24.1644 5.50098L19.4955 7.83542" stroke="white" stroke-width="2" stroke-miterlimit="10" stroke-linecap="square"/>
<path d="M25.3377 8.99658H18.3344" stroke="white" stroke-width="2" stroke-miterlimit="10" stroke-linecap="square"/>
<path d="M16.8415 21.3484C16.8415 21.2582 16.8059 21.1717 16.7421 21.1079C16.6784 21.0442 16.5919 21.0085 16.5017 21.0085H15.4982C14.8278 21.0084 14.1845 20.742 13.7104 20.268C13.2362 19.7938 12.9698 19.1497 12.9698 18.4791C12.9699 17.8086 13.2363 17.1654 13.7104 16.6912C14.1845 16.2171 14.8278 15.9508 15.4982 15.9507H18.8495V18.1393H15.4982C15.4082 18.1394 15.3215 18.175 15.2578 18.2386C15.1941 18.3023 15.1585 18.389 15.1584 18.4791C15.1584 18.5691 15.1943 18.6558 15.2578 18.7195C15.3215 18.7832 15.4082 18.8198 15.4982 18.82H16.5017C17.1723 18.82 17.8153 19.0863 18.2895 19.5605C18.7638 20.0348 19.0301 20.6777 19.0301 21.3484C19.0301 22.019 18.7637 22.662 18.2895 23.1362C17.8153 23.6103 17.1723 23.8768 16.5017 23.8768H13.1515V21.6882H16.5017C16.5918 21.6882 16.6784 21.6525 16.7421 21.5888C16.8059 21.5251 16.8415 21.4385 16.8415 21.3484Z" fill="white"/>
<path d="M17.1147 15.1289V17.045H14.9261V15.1289H17.1147Z" fill="white"/>
<path d="M17.1147 22.7827V24.6988H14.9261V22.7827H17.1147Z" fill="white"/>
</svg>
