<svg width="32" height="32" viewBox="0 0 32 32" fill="none" xmlns="http://www.w3.org/2000/svg">
<path d="M3.16669 6.66255C3.16669 7.12159 3.40822 7.57614 3.87748 8.00024C4.34675 8.42434 5.03457 8.80969 5.90166 9.13428C6.76875 9.45887 7.79814 9.71635 8.93105 9.89202C10.064 10.0677 11.2782 10.1581 12.5045 10.1581C13.7307 10.1581 14.945 10.0677 16.0779 9.89202C17.2108 9.71635 18.2402 9.45887 19.1073 9.13428C19.9744 8.80969 20.6622 8.42434 21.1314 8.00024C21.6007 7.57614 21.8422 7.12159 21.8422 6.66255C21.8422 6.2035 21.6007 5.74896 21.1314 5.32486C20.6622 4.90076 19.9744 4.51541 19.1073 4.19082C18.2402 3.86622 17.2108 3.60874 16.0779 3.43308C14.945 3.25741 13.7307 3.16699 12.5045 3.16699C11.2782 3.16699 10.064 3.25741 8.93105 3.43308C7.79814 3.60874 6.76875 3.86622 5.90166 4.19082C5.03457 4.51541 4.34675 4.90076 3.87748 5.32486C3.40822 5.74896 3.16669 6.2035 3.16669 6.66255Z" stroke="white" stroke-width="2" stroke-miterlimit="10"/>
<path d="M3.16669 12.5049C3.16669 13.7271 4.82891 14.7904 7.33447 15.4138C9.0282 15.815 10.7639 16.0119 12.5045 16.0004C13.2843 16.0035 14.0637 15.9627 14.8389 15.8782" stroke="white" stroke-width="2" stroke-miterlimit="10"/>
<path d="M3.16669 18.3345C3.16669 20.2656 7.34669 21.83 12.5045 21.83C13.3111 21.83 14.1056 21.83 14.8511 21.72" stroke="white" stroke-width="2" stroke-miterlimit="10"/>
<path d="M3.16669 6.6626V12.5048V24.1648" stroke="white" stroke-width="2" stroke-miterlimit="10"/>
<path d="M21.83 12.5048V6.6626" stroke="white" stroke-width="2" stroke-miterlimit="10"/>
<path d="M3.16669 24.1646C3.16669 26.1079 7.34669 27.6723 12.5045 27.6723C13.9651 27.681 15.4229 27.5417 16.8556 27.2568" stroke="white" stroke-width="2" stroke-miterlimit="10"/>
<path d="M23.0156 28.8094H22.9422C21.2922 28.3117 19.8457 27.2972 18.8159 25.9153C17.7861 24.5334 17.2274 22.8572 17.2222 21.1338V16.5138L23.0033 14.8394L28.8945 16.5138V21.0971C28.8912 22.8482 28.3147 24.5501 27.2531 25.9428C26.1915 27.3354 24.7032 28.3422 23.0156 28.8094Z" stroke="white" stroke-width="2" stroke-miterlimit="10"/>
</svg>
