<svg width="32" height="32" viewBox="0 0 32 32" fill="none" xmlns="http://www.w3.org/2000/svg">
<g clip-path="url(#clip0_1292_13628)">
<path d="M12.8484 25.2683L6.74504 19.165C6.4756 18.8984 6.2617 18.581 6.11572 18.2311C5.96974 17.8813 5.89457 17.506 5.89457 17.127C5.89457 16.7479 5.96974 16.3726 6.11572 16.0228C6.2617 15.673 6.4756 15.3556 6.74504 15.089L14.2141 7.61989C17.2534 4.58686 21.3694 2.87983 25.6632 2.87168C26.5866 2.86974 27.4731 3.23431 28.128 3.88534C28.7803 4.53588 29.1486 5.41821 29.1523 6.33947C29.1442 10.6332 27.4371 14.7493 24.4041 17.7885L16.935 25.2576C16.6689 25.5294 16.3514 25.7455 16.001 25.8933C15.6506 26.0412 15.2743 26.1178 14.8939 26.1188C14.5136 26.1198 14.1369 26.0451 13.7857 25.8991C13.4345 25.7531 13.1159 25.5387 12.8484 25.2683Z" stroke="white" stroke-width="2" stroke-miterlimit="10"/>
<path d="M25.0657 17.127L24.0627 28.3306L22.0247 30.3686L16.9243 25.2683L25.0657 17.127Z" stroke="white" stroke-width="2" stroke-miterlimit="10"/>
<path d="M14.8863 6.94756L3.69338 7.96123L1.65538 9.99922L6.74503 15.0889L14.8863 6.94756Z" stroke="white" stroke-width="2" stroke-miterlimit="10"/>
<path d="M14.8864 13.0509C14.3458 13.5914 14.0422 14.3245 14.0422 15.0889C14.0422 15.8533 14.3458 16.5864 14.8864 17.1269C15.4269 17.6674 16.16 17.9711 16.9244 17.9711C17.6888 17.9711 18.4218 17.6674 18.9624 17.1269C19.5029 16.5864 19.8065 15.8533 19.8065 15.0889C19.8065 14.3245 19.5029 13.5914 18.9624 13.0509C18.4218 12.5104 17.6888 12.2068 16.9244 12.2068C16.16 12.2068 15.4269 12.5104 14.8864 13.0509Z" stroke="white" stroke-width="2" stroke-miterlimit="10"/>
<path d="M20.9363 3.58643C20.8982 4.5775 21.0653 5.56576 21.4272 6.4892C21.7891 7.41263 22.3379 8.25132 23.0392 8.95263C23.7405 9.65395 24.5792 10.2028 25.5027 10.5646C26.4261 10.9265 27.4143 11.0936 28.4054 11.0555" stroke="white" stroke-width="2" stroke-miterlimit="10"/>
<path d="M4.44733 23.2725L1.29814 26.4216" stroke="white" stroke-width="2"/>
<path d="M8.06038 26.5815L4.96715 29.7857" stroke="white" stroke-width="2"/>
</g>
<defs>
<clipPath id="clip0_1292_13628">
<rect width="32" height="32" fill="white"/>
</clipPath>
</defs>
</svg>
