<svg width="32" height="32" viewBox="0 0 32 32" fill="none" xmlns="http://www.w3.org/2000/svg">
<g clip-path="url(#clip0_1292_13644)">
<path d="M7.46444 2.5835H24.5356C25.1828 2.5835 25.8036 2.84063 26.2613 3.29832C26.719 3.75601 26.9761 4.37678 26.9761 5.02405V19.6546H5.02389V5.02405C5.02389 4.37678 5.28102 3.75601 5.73871 3.29832C6.1964 2.84063 6.81717 2.5835 7.46444 2.5835Z" stroke="white" stroke-width="2" stroke-miterlimit="10"/>
<path d="M26.9761 19.6543H5.02389L2.68556 26.6565C2.61948 26.8719 2.58505 27.0957 2.58334 27.321C2.58669 27.8757 2.80855 28.4068 3.20081 28.799C3.59308 29.1913 4.12415 29.4132 4.67889 29.4165H27.3211C27.8759 29.4132 28.4069 29.1913 28.7992 28.799C29.1915 28.4068 29.4133 27.8757 29.4167 27.321C29.415 27.0957 29.3805 26.8719 29.3144 26.6565L26.9761 19.6543Z" stroke="white" stroke-width="2" stroke-miterlimit="10"/>
<path d="M13.5594 25.7622H18.4406" stroke="white" stroke-width="2" stroke-miterlimit="10"/>
<path d="M11.1189 13.5593L14.7733 9.90489L17.2267 12.3454L20.8811 8.67822" stroke="white" stroke-width="2" stroke-miterlimit="10" stroke-linecap="square"/>
</g>
<defs>
<clipPath id="clip0_1292_13644">
<rect width="32" height="32" fill="white"/>
</clipPath>
</defs>
</svg>
