<svg width="32" height="32" viewBox="0 0 32 32" fill="none" xmlns="http://www.w3.org/2000/svg">
<g clip-path="url(#clip0_1292_13633)">
<path d="M29.4167 15.9999C29.4167 18.6535 28.6298 21.2475 27.1555 23.4538C25.6813 25.6602 23.5859 27.3798 21.1343 28.3953C18.6827 29.4108 15.9851 29.6765 13.3825 29.1588C10.7799 28.6411 8.38932 27.3633 6.51297 25.4869C4.63662 23.6106 3.3588 21.22 2.84112 18.6174C2.32343 16.0148 2.58913 13.3172 3.6046 10.8656C4.62008 8.41401 6.33973 6.31861 8.54608 4.84437C10.7524 3.37013 13.3464 2.58325 16 2.58325C19.5583 2.58325 22.9709 3.99679 25.487 6.5129C28.0031 9.02902 29.4167 12.4416 29.4167 15.9999Z" stroke="white" stroke-width="2" stroke-miterlimit="10" stroke-linecap="square"/>
<path d="M12.3455 20.8811H17.2777C17.925 20.8811 18.5458 20.624 19.0035 20.1663C19.4612 19.7086 19.7183 19.0878 19.7183 18.4406C19.72 18.1196 19.658 17.8015 19.536 17.5046C19.4139 17.2077 19.2342 16.938 19.0073 16.7111C18.7803 16.4841 18.5106 16.3044 18.2137 16.1823C17.9168 16.0603 17.5987 15.9983 17.2777 16H14.85C14.529 16.0017 14.2109 15.9397 13.914 15.8177C13.6171 15.6956 13.3474 15.5159 13.1205 15.289C12.8935 15.062 12.7138 14.7923 12.5917 14.4954C12.4697 14.1985 12.4077 13.8804 12.4094 13.5595C12.4094 12.9122 12.6665 12.2914 13.1242 11.8337C13.5819 11.376 14.2027 11.1189 14.85 11.1189H19.7183" stroke="white" stroke-width="2" stroke-miterlimit="10" stroke-linecap="square"/>
<path d="M16 8.67822V11.1188" stroke="white" stroke-width="2" stroke-miterlimit="10" stroke-linecap="square"/>
<path d="M16 20.8811V23.3217" stroke="white" stroke-width="2" stroke-miterlimit="10" stroke-linecap="square"/>
</g>
<defs>
<clipPath id="clip0_1292_13633">
<rect width="32" height="32" fill="white"/>
</clipPath>
</defs>
</svg>
