<svg width="90" height="32" viewBox="0 0 90 32" fill="none" xmlns="http://www.w3.org/2000/svg">
<path d="M18.8546 0.0520477C18.7356 0.0860538 18.4552 0.12006 18.2342 0.128561C17.3505 0.145565 14.4952 0.868189 13.4584 1.32727C13.365 1.36977 13.1015 1.48029 12.8636 1.57381C12.2432 1.81185 10.6032 2.59398 10.3482 2.78102C10.2293 2.85753 10.0338 2.95955 9.90634 2.98505C9.77887 3.01906 9.6769 3.07857 9.6769 3.11257C9.6769 3.14658 9.60891 3.19759 9.53243 3.23159C9.44745 3.2571 9.269 3.35912 9.12454 3.45263C8.98857 3.54615 8.78462 3.65667 8.67415 3.70768C8.56368 3.75018 8.35123 3.88621 8.19827 4.00523C8.04531 4.12425 7.89235 4.21776 7.86685 4.21776C7.6714 4.21776 4.93509 6.2071 4.16179 6.90422C3.53295 7.47382 2.36874 8.71503 2.36874 8.81705C2.36874 8.84256 2.29226 8.96158 2.19029 9.0721C1.93535 9.36115 1.17055 10.5684 0.949601 11.0189C0.856125 11.2315 0.669172 11.6055 0.550202 11.8606C0.133808 12.7107 -0.0361495 13.6374 0.0063398 14.7171C0.0573269 15.7797 0.295267 16.3323 1.01758 17.0635C1.77389 17.8201 2.58119 18.1517 3.85587 18.2197C4.73115 18.2622 5.35999 18.1942 6.23527 17.9476C6.5157 17.8711 6.8896 17.7776 7.06806 17.7266C7.24651 17.6841 7.45046 17.6161 7.53544 17.5651C7.73089 17.463 8.82711 16.9699 8.8781 16.9699C9.03106 16.9699 10.8241 15.8733 12.4812 14.7681C13.5774 14.0369 14.5377 13.3993 14.6226 13.3568C14.6991 13.3058 15.2175 12.9998 15.7699 12.6682C16.3222 12.3452 17.002 11.9541 17.2825 11.8096C17.5629 11.665 17.9623 11.4525 18.1747 11.342C18.3872 11.24 18.7866 11.0529 19.067 10.9509C19.3475 10.8404 19.6959 10.6959 19.8318 10.6364C19.9763 10.5769 20.1802 10.4833 20.2992 10.4323C20.6306 10.2963 21.3784 10.1603 22.1093 10.1093C23.6899 10.0073 24.7946 10.7044 25.3639 12.1666C25.4999 12.5152 25.5254 12.8042 25.5254 13.8244C25.5254 15.0656 25.4149 15.7457 25.0835 16.5449C25.0155 16.7064 24.922 16.9359 24.8711 17.055C24.4462 18.0751 23.5709 19.5374 22.5681 20.8636C21.6164 22.1388 19.5684 24.2557 18.2172 25.3694C17.7499 25.7605 17.2315 26.1855 17.07 26.3216C16.7131 26.6191 16.2967 26.9167 15.8378 27.2227C15.6509 27.3417 15.345 27.5458 15.158 27.6818C14.6311 28.0388 13.229 28.787 12.4387 29.127C12.2093 29.2291 11.8948 29.3651 11.7419 29.4331C11.5974 29.5011 11.402 29.5521 11.3085 29.5521C11.2235 29.5521 11.0281 29.5946 10.8751 29.6456C10.3227 29.8412 9.76188 29.4671 9.76188 28.8975C9.76188 28.2004 10.0933 27.7583 12.1838 25.6839C14.4442 23.4396 14.6906 23.108 14.6906 22.2579C14.6906 21.3822 14.2742 20.7871 13.3395 20.311C12.9316 20.0985 12.7786 20.073 12.0648 20.073C11.232 20.073 10.7476 20.192 10.1443 20.5576C10.0083 20.6426 9.79587 20.7531 9.6769 20.8126C9.55793 20.8721 9.44745 20.9401 9.42196 20.9656C9.39647 20.9911 9.22651 21.1187 9.03956 21.2632C8.58917 21.6032 7.79887 22.4109 7.34848 22.9975C7.03406 23.4056 6.80462 23.7881 6.26926 24.7913C5.82737 25.6244 5.42797 27.1717 5.42797 28.0729C5.42797 29.9007 6.37973 31.3629 7.84986 31.7795C8.29175 31.907 10.0933 31.907 10.7136 31.788C11.3255 31.6605 12.9231 31.1674 13.0251 31.0739C13.076 31.0314 13.161 30.9974 13.229 30.9974C13.4499 30.9974 15.9738 29.7136 16.8406 29.1525C17.036 29.025 17.257 28.8805 17.342 28.8295C17.4184 28.787 17.8178 28.5404 18.2342 28.2854C18.6421 28.0303 18.999 27.7923 19.0245 27.7668C19.05 27.7328 19.339 27.5203 19.6619 27.2992C19.9933 27.0697 20.3757 26.8061 20.5117 26.7126C20.6561 26.6106 21.0555 26.3046 21.4039 26.024C23.6134 24.2642 25.5679 22.3854 26.7066 20.9231C26.8935 20.6936 27.0635 20.4811 27.089 20.4555C27.157 20.4045 27.7348 19.5714 28.1342 18.9423C28.3127 18.6787 28.5846 18.2112 28.7376 17.9051C28.899 17.5991 29.12 17.1825 29.2305 16.9699C29.3409 16.7574 29.5789 16.2048 29.7658 15.7372C29.9443 15.2697 30.1227 14.8106 30.1567 14.7171C30.3947 14.1135 30.7601 12.5577 30.9215 11.444C31.1 10.1858 30.964 8.11993 30.6156 6.98074C30.4711 6.51316 30.4372 6.42814 30.1227 5.74803C29.4429 4.28577 28.3552 2.95955 27.106 2.0924C26.936 1.97338 26.7236 1.81185 26.6301 1.71833C26.3242 1.44629 24.7691 0.749168 23.8598 0.485622C23.3754 0.341099 22.6531 0.188072 22.2537 0.128561C21.336 0.00954056 19.135 -0.0499687 18.8546 0.0520477Z" fill="#05146F"/>
<path d="M87.4912 7.12974C87.4684 7.14493 87.1191 7.2133 86.7014 7.28168C86.2837 7.34245 85.6003 7.45641 85.1826 7.53238L84.4232 7.66154V14.6509C84.4232 22.2404 84.408 21.9213 84.8561 22.871C85.0079 23.1977 85.2206 23.4788 85.5471 23.775C86.3521 24.512 87.1039 24.7399 88.7062 24.7475C90.0731 24.7475 90.0199 24.8007 89.9896 23.5395L89.9668 22.6279L89.382 22.5747C88.3417 22.4835 87.8405 22.0657 87.7266 21.1996C87.6962 20.9413 87.6734 17.6897 87.681 13.9823C87.6886 7.56277 87.6734 6.9474 87.4912 7.12974Z" fill="#05146F"/>
<path d="M66.4636 7.28163C64.7778 7.53233 64.2158 7.63869 64.1475 7.72226C64.0943 7.78304 64.0867 10.2065 64.1095 14.8408C64.1475 21.3135 64.1627 21.8985 64.2842 22.21C64.5727 22.9469 64.7246 23.2052 65.1119 23.5927C65.9093 24.3904 66.9269 24.717 68.5975 24.717C69.524 24.717 69.6531 24.7018 69.7138 24.5803C69.7898 24.4359 69.8277 23.114 69.767 22.8102C69.7214 22.6202 69.691 22.6126 69.1215 22.5671C68.4001 22.5215 67.9748 22.2784 67.6787 21.7542L67.4888 21.4123L67.466 17.477C67.4508 14.5445 67.466 13.5113 67.5344 13.4277C67.6027 13.3441 67.8609 13.3213 68.6735 13.3213C69.9265 13.3213 69.8201 13.4429 69.7898 11.9918L69.767 11.0042L68.7038 10.9662C68.1191 10.9434 67.5951 10.8979 67.5496 10.8675C67.4736 10.8219 67.4508 10.3585 67.4508 8.98338V7.16767L67.2838 7.17527C67.1851 7.18286 66.8205 7.22845 66.4636 7.28163Z" fill="#05146F"/>
<path d="M40.1507 10.7079C39.5812 10.7611 38.2143 11.0877 37.7966 11.2701C37.7131 11.3081 37.5612 11.3612 37.4549 11.3916C37.1208 11.4828 36.0121 12.0374 36.0121 12.1134C36.0121 12.1513 36.0804 12.3261 36.1564 12.5084C36.6576 13.61 36.8474 14.005 36.8854 14.005C36.9081 14.005 36.9841 13.9746 37.06 13.9367C37.4473 13.7391 37.9181 13.5492 38.2902 13.4353C38.5181 13.3669 38.7914 13.2757 38.8978 13.2377C39.323 13.0858 40.4545 13.0098 40.9785 13.0934C42.0113 13.2605 42.391 13.7391 42.4517 14.9623C42.4821 15.6384 42.4821 15.6536 42.3074 15.6992C42.2087 15.7296 41.5101 15.7524 40.7583 15.7524C38.9509 15.7524 38.3966 15.8587 37.2271 16.4285C36.2247 16.9147 35.4805 17.834 35.1236 19.0191C34.9413 19.6497 34.9641 20.8273 35.1691 21.4502C35.8526 23.5166 37.4777 24.7246 39.7407 24.8461C41.7986 24.9601 43.9173 24.3447 45.2766 23.2507L45.7702 22.8481L45.793 18.8292C45.8158 14.1722 45.8082 14.0126 45.2463 12.8731C44.9957 12.3565 44.1527 11.536 43.6288 11.3081C43.3858 11.1941 43.12 11.0801 43.0364 11.0422C42.4669 10.7915 41.024 10.6243 40.1507 10.7079ZM42.391 18.0315C42.4365 18.0923 42.4669 18.9964 42.4669 20.0903C42.4669 22.2479 42.4973 22.1112 41.9353 22.4075C41.7227 22.5214 41.4873 22.5442 40.7507 22.5518H39.8318L39.4521 22.2935C39.2471 22.1568 39.0041 21.9288 38.9205 21.7997C38.3586 20.9792 38.3966 19.513 38.9889 18.7912C39.1635 18.5709 39.8318 18.1075 39.9533 18.1075C40.0292 18.1075 40.1128 18.0771 40.1583 18.0391C40.2647 17.9252 40.614 17.8948 41.5025 17.91C42.1404 17.9176 42.3378 17.9404 42.391 18.0315Z" fill="#05146F"/>
<path d="M59.0976 10.8905C57.5864 11.2475 56.3789 11.8933 55.1639 13.0025L54.845 13.2912V18.8371C54.845 21.8835 54.845 24.4361 54.845 24.5121C54.845 24.6337 54.9589 24.6413 56.5004 24.6261L58.1483 24.6033L58.1711 19.3081L58.1863 14.0205L58.4749 13.7926C58.8166 13.5191 58.9837 13.4355 59.4241 13.2836C59.9481 13.1088 60.7682 13.0253 61.3833 13.0936C61.6871 13.124 61.9757 13.1392 62.0212 13.1164C62.0744 13.1012 62.2111 12.8429 62.3326 12.539C62.4465 12.2352 62.6287 11.8401 62.7199 11.6578C62.9705 11.1792 62.9477 11.0576 62.6135 10.9816C62.4541 10.9436 62.1655 10.8753 61.9605 10.8297C61.4213 10.6929 59.7734 10.7309 59.0976 10.8905Z" fill="#05146F"/>
<path d="M75.6143 10.9058C75.3637 10.9438 75.1283 11.0122 75.0903 11.0502C75.0447 11.0881 74.9688 11.1185 74.908 11.1185C74.8473 11.1185 74.5739 11.2249 74.3081 11.3616C73.7234 11.6503 72.8273 12.4784 72.4476 13.0938C72.1135 13.6332 71.7262 14.4385 71.6654 14.7272C71.6351 14.8487 71.5895 15.0235 71.5515 15.107C71.5211 15.1906 71.43 15.5173 71.3541 15.8288C71.149 16.6492 71.149 19.2779 71.3465 20.0452C71.5287 20.7517 71.9388 21.8305 72.0148 21.8305C72.0527 21.8305 72.0831 21.8685 72.0831 21.9141C72.0831 22.2027 72.9868 23.3499 73.6247 23.8665C73.9056 24.0944 74.5359 24.4211 75.0068 24.5807C75.5155 24.7554 76.6394 24.9453 77.1406 24.9453C78.219 24.9453 80.163 24.4819 80.8085 24.0716C80.9604 23.9805 81.1654 23.8741 81.2717 23.8437C81.4995 23.7754 82.0007 23.4639 82.0615 23.3575C82.1298 23.2512 81.2793 21.5266 81.1654 21.5266C81.1123 21.5266 80.9756 21.595 80.8692 21.6785C80.7629 21.7621 80.6338 21.8305 80.5731 21.8305C80.5199 21.8305 80.406 21.8761 80.3225 21.9368C80.239 21.99 79.8441 22.1496 79.4492 22.2863C78.7733 22.5218 78.6594 22.537 77.6646 22.5446C76.723 22.5446 76.5635 22.5294 76.2597 22.3851C75.1966 21.8761 74.5891 20.5922 74.5891 18.86C74.5891 18.4878 74.5967 18.1763 74.6119 18.1687C74.6195 18.1535 76.3053 18.1307 78.3481 18.1079L82.0691 18.0699L82.0463 17.3102C82.0007 15.8212 81.6059 13.8155 81.2641 13.3597C81.2338 13.3141 81.1274 13.1242 81.0287 12.9342C80.6186 12.1214 79.7529 11.4224 78.7278 11.0805C77.976 10.8222 76.6015 10.7463 75.6143 10.9058ZM77.247 13.3217C77.5659 13.4053 78.2342 13.9447 78.2342 14.1118C78.2342 14.1574 78.2873 14.2941 78.3481 14.4081C78.5227 14.75 78.6594 15.8743 78.5379 16.0187C78.462 16.1174 78.1658 16.1326 76.6318 16.1326H74.8169L74.7713 15.9427C74.6726 15.5553 74.9384 14.5145 75.2422 14.1118C75.5763 13.6636 75.8725 13.4357 76.3129 13.3065C76.5559 13.2381 76.7913 13.1926 76.8445 13.2077C76.89 13.2229 77.0723 13.2761 77.247 13.3217Z" fill="#05146F"/>
<path d="M49.4533 5.557C48.8761 5.85329 48.7015 5.99764 48.4509 6.3699C48.2079 6.74216 48.2003 6.77255 48.2003 7.54745V8.35275L48.4888 8.7478C48.8306 9.21122 49.0584 9.37836 49.5596 9.5531C50.2354 9.77341 50.8202 9.68984 51.496 9.2644C52.3086 8.7478 52.5895 7.4259 52.0959 6.45347C51.9213 6.1116 51.7694 5.95206 51.3138 5.66336C50.9037 5.39746 49.8633 5.33669 49.4533 5.557Z" fill="#05146F"/>
<path d="M51.3137 11.0422C51.1922 11.0802 50.8505 11.1486 50.5543 11.1866C50.2657 11.2246 49.7342 11.3006 49.3772 11.3537C49.0203 11.3993 48.709 11.4677 48.671 11.4905C48.6027 11.5513 48.5951 24.4588 48.6558 24.5727C48.6862 24.6107 49.3621 24.6411 50.2505 24.6411C51.7997 24.6411 51.8073 24.6411 51.8453 24.4664C51.868 24.3752 51.8756 21.306 51.868 17.6518C51.8453 11.065 51.8453 11.0043 51.6934 10.9891C51.6098 10.9815 51.4428 11.0043 51.3137 11.0422Z" fill="#05146F"/>
</svg>
