<svg width="77" height="34" viewBox="0 0 77 34" fill="none" xmlns="http://www.w3.org/2000/svg">
<path d="M12.9518 28.5001C6.8693 28.5001 1.90925 23.5097 2.00026 17.3665C2.09127 11.5116 6.89964 6.53634 13.0883 6.61218C19.0343 6.67286 23.9337 11.4964 23.9034 17.594C23.8882 23.722 18.8978 28.5152 12.9518 28.5001ZM10.8131 18.0643C10.8131 18.0643 10.7524 18.0643 10.7372 18.0643C10.0395 18.0643 9.34174 18.0643 8.62883 18.0643C8.50748 18.0643 8.50748 18.1249 8.50748 18.2159C8.50748 18.8985 8.50748 19.5811 8.50748 20.2788C8.50748 20.4002 8.55299 20.4305 8.65917 20.4305C9.32657 20.4305 9.99398 20.4305 10.6614 20.4305C10.7069 20.4305 10.7524 20.4305 10.7979 20.4305V18.0946L10.8131 18.0643ZM8.53782 12.5127C8.53782 12.5127 8.53782 12.5885 8.53782 12.6188C8.53782 13.3166 8.53782 14.0295 8.53782 14.7272C8.53782 14.8182 8.56816 14.8486 8.65917 14.8486C9.35691 14.8486 10.0547 14.8486 10.7524 14.8486C10.7827 14.8486 10.8131 14.8486 10.8434 14.8486V12.5278H8.56816L8.53782 12.5127ZM11.2681 12.5127C11.2681 12.5127 11.2681 12.5733 11.2681 12.6037C11.2681 13.3166 11.2681 14.0295 11.2681 14.7272C11.2681 14.8486 11.3288 14.8486 11.4198 14.8486C12.0872 14.8486 12.7698 14.8486 13.4372 14.8486C13.5585 14.8486 13.5889 14.8182 13.5889 14.6969C13.5889 14.0143 13.5889 13.3317 13.5889 12.6492C13.5889 12.6037 13.5889 12.5582 13.5889 12.5127H11.2985H11.2681ZM13.9984 14.8334C13.9984 14.8334 14.0591 14.8334 14.0743 14.8334C14.772 14.8334 15.4698 14.8334 16.1827 14.8334C16.304 14.8334 16.304 14.7727 16.304 14.6817C16.304 13.9992 16.304 13.3166 16.304 12.6188C16.304 12.4975 16.2585 12.4672 16.1523 12.4672C15.4849 12.4672 14.8175 12.4672 14.1501 12.4672C14.1046 12.4672 14.0591 12.4672 14.0136 12.4672V14.7879L13.9984 14.8334ZM8.53782 15.2733V17.6092H10.8282V15.2733H8.53782ZM10.8282 23.1608V20.8401H8.53782V23.1608H10.8282ZM16.6529 23.722C16.6529 23.722 16.5467 23.722 16.5164 23.722C15.849 23.722 15.1816 23.722 14.5142 23.722C14.3776 23.722 14.3473 23.7676 14.3473 23.8889C14.3473 24.5715 14.3473 25.2389 14.3473 25.9215C14.3473 25.967 14.3473 26.0125 14.3473 26.0731H16.6377V23.7524L16.6529 23.722ZM10.8282 9.73686C10.8282 9.73686 10.7221 9.73686 10.6766 9.73686C10.0092 9.73686 9.34174 9.73686 8.67434 9.73686C8.53782 9.73686 8.52265 9.78236 8.52265 9.90371C8.52265 10.5711 8.52265 11.2537 8.52265 11.9211C8.52265 12.0424 8.55299 12.0879 8.67434 12.0879C9.34174 12.0879 10.0092 12.0879 10.6766 12.0879C10.7221 12.0879 10.7676 12.0879 10.8131 12.0879V9.76719L10.8282 9.73686ZM8.12827 12.5127H5.85302V14.8334H8.12827V12.5127ZM19.0192 12.5127H16.7439V14.8334H19.0192V12.5127ZM16.6832 23.1608H18.9585V20.8401H16.6832V23.1608ZM11.6473 23.722V26.0428H13.9226V23.722H11.6473Z" fill="#05146F"/>
<path d="M63.1588 14.0903C63.2953 13.9538 63.3863 13.8476 63.4925 13.7414C64.0841 13.165 64.8121 12.8313 65.6009 12.6645C66.7234 12.4218 67.8458 12.4066 68.9531 12.7251C70.4396 13.1499 71.3345 14.151 71.6379 15.6526C71.7138 16.0622 71.7593 16.4869 71.7593 16.8964C71.7593 19.4295 71.7593 21.9778 71.7593 24.5109C71.7593 24.6626 71.7593 24.8295 71.7289 24.9811C71.6683 25.3604 71.5014 25.5575 71.1222 25.5879C70.6823 25.6334 70.2424 25.6334 69.8025 25.5879C69.3323 25.5424 69.1503 25.2997 69.1048 24.7991C69.1048 24.6929 69.1048 24.5716 69.1048 24.4654C69.1048 22.0992 69.1048 19.7481 69.1048 17.3818C69.1048 17.0936 69.0745 16.7903 69.0138 16.5172C68.8469 15.7588 68.3615 15.2886 67.6031 15.1066C66.7537 14.8942 65.9043 14.8942 65.07 15.1066C64.0386 15.3644 63.4622 16.0622 63.265 17.0936C63.2043 17.4425 63.1588 17.7914 63.1588 18.1554C63.1588 20.2335 63.1588 22.2964 63.1588 24.3744C63.1588 24.5564 63.1588 24.7385 63.1285 24.9205C63.0678 25.3604 62.9009 25.5575 62.4611 25.6031C62.0363 25.6486 61.6116 25.6486 61.2021 25.6031C60.747 25.5575 60.5498 25.3149 60.5195 24.8598C60.5195 24.6778 60.5043 24.4958 60.5043 24.3137C60.5043 19.1262 60.5043 13.9386 60.5043 8.73588C60.5043 8.52352 60.5195 8.32634 60.5498 8.11398C60.5953 7.79545 60.7774 7.58309 61.1111 7.52241C61.5965 7.44657 62.0818 7.4314 62.5672 7.52241C62.9616 7.59826 63.1285 7.84095 63.1588 8.32634C63.1588 8.46285 63.1588 8.59937 63.1588 8.73588C63.1588 10.4499 63.1588 12.1488 63.1588 13.8628C63.1588 13.9234 63.1588 13.9689 63.1588 14.06V14.0903Z" fill="#05146F"/>
<path d="M44.8664 18.0188C44.8513 17.4272 44.8664 16.8508 44.8058 16.2896C44.7147 15.5767 44.2294 15.1671 43.562 14.9699C43.0766 14.8182 42.5608 14.7727 42.0603 14.7727C41.0288 14.7576 39.9974 14.8182 38.9811 15.0154C38.8294 15.0458 38.6626 15.0458 38.4957 15.0154C38.3289 15.0154 38.2227 14.8941 38.1772 14.7272C38.1468 14.6514 38.1317 14.5604 38.1317 14.4694C38.1317 14.1053 38.1317 13.7565 38.1468 13.3924C38.162 13.0587 38.3592 12.8464 38.6777 12.7705C39.0266 12.6795 39.3907 12.6188 39.7547 12.5733C40.6345 12.452 41.4991 12.452 42.3788 12.4975C43.2889 12.5278 44.199 12.6492 45.0485 12.9829C45.8372 13.2862 46.4894 13.7261 46.9445 14.4542C47.263 14.9699 47.4147 15.5311 47.4754 16.1227C47.5057 16.4412 47.5057 16.7598 47.5057 17.0631C47.5057 18.7013 47.5057 20.3395 47.5057 21.9777C47.5057 22.6906 47.354 23.3732 46.99 23.9951C46.5198 24.8142 45.7614 25.254 44.8968 25.5271C44.108 25.7698 43.3041 25.8608 42.485 25.8759C41.5901 25.9063 40.6951 25.8759 39.8305 25.6636C39.2238 25.5271 38.6626 25.3147 38.1468 24.9507C37.5249 24.5108 37.1154 23.9344 36.903 23.2063C36.6603 22.3569 36.6603 21.5075 36.8727 20.6429C37.1609 19.5508 37.8738 18.8378 38.9204 18.4283C39.5878 18.1704 40.2856 18.0188 40.9985 18.0036C42.212 17.9732 43.4406 17.9732 44.6541 17.9581C44.7148 17.9581 44.7906 17.9581 44.8968 17.9581L44.8664 18.0188ZM44.8513 20.0361C44.8513 20.0361 44.7754 20.0361 44.7451 20.0361C43.8046 20.0361 42.8794 20.0361 41.9389 20.0361C41.6052 20.0361 41.2564 20.0665 40.9227 20.1271C40.4828 20.1878 40.0732 20.3395 39.7699 20.6884C39.3451 21.1738 39.3148 21.7502 39.421 22.3417C39.5575 23.0546 40.0429 23.4187 40.6951 23.5552C41.6052 23.7524 42.5153 23.722 43.4254 23.5552C44.108 23.4187 44.6086 23.0546 44.7754 22.3417C44.8209 22.1445 44.8513 21.9322 44.8513 21.735C44.8513 21.3558 44.8513 20.9766 44.8513 20.5974C44.8513 20.4153 44.8513 20.2485 44.8513 20.0513V20.0361Z" fill="#05146F"/>
<path d="M53.9676 12.4823C55.1053 12.4823 56.2126 12.634 57.2743 12.9981C57.3502 13.0284 57.4412 13.0587 57.517 13.0891C57.7749 13.2104 57.9721 13.4076 57.9873 13.6958C58.0176 14.1205 58.0176 14.5604 57.9873 14.9851C57.9569 15.3643 57.7294 15.516 57.3502 15.4402C57.0013 15.3795 56.6524 15.2733 56.3036 15.1975C55.6665 15.0458 55.0294 14.9699 54.3772 14.9699C53.816 14.9699 53.2547 15.0003 52.6935 15.0306C52.557 15.0306 52.4053 15.0761 52.2688 15.1216C51.5255 15.3643 51.3283 16.2744 51.9047 16.7901C52.1171 16.9873 52.3901 17.139 52.6632 17.2604C53.7705 17.7609 54.8929 18.2311 56.0002 18.7013C56.5159 18.9289 57.0165 19.1867 57.4564 19.5508C58.0024 20.0058 58.3361 20.567 58.4726 21.2496C58.6243 21.9474 58.6243 22.6451 58.4726 23.3277C58.2299 24.3743 57.5625 25.0265 56.5918 25.4057C55.9244 25.6636 55.2418 25.7849 54.5289 25.8305C53.7249 25.8911 52.9059 25.8911 52.1019 25.8305C51.207 25.7698 50.3272 25.6029 49.4778 25.3451C49.1289 25.2389 48.8559 25.072 48.7952 24.6777C48.7801 24.5563 48.7649 24.435 48.7649 24.3136C48.7649 23.9951 48.7649 23.6917 48.7952 23.3732C48.8256 22.9636 49.0531 22.7968 49.4475 22.8575C49.8267 22.9181 50.1907 23.0091 50.5548 23.1002C51.3132 23.267 52.0716 23.358 52.8452 23.3884C53.5278 23.4187 54.2103 23.4187 54.8777 23.3277C55.0143 23.3125 55.1659 23.267 55.3025 23.2215C56.2277 22.9485 56.1519 21.8412 55.6362 21.462C55.3631 21.2648 55.0749 21.0676 54.7716 20.9311C53.7856 20.476 52.7997 20.0362 51.8137 19.5963C51.2373 19.3384 50.6761 19.0806 50.1755 18.7013C49.493 18.1705 49.1289 17.4727 49.0228 16.6233C48.9469 16.0014 48.9621 15.3947 49.1289 14.7879C49.3716 13.893 49.9632 13.2863 50.8126 12.9222C51.389 12.6795 51.9806 12.5582 52.5873 12.4975C53.0424 12.452 53.5126 12.4368 53.9676 12.4065V12.4823Z" fill="#05146F"/>
<path d="M29.6677 18.9896C29.6829 19.7935 29.6677 20.4154 29.7284 21.0222C29.7739 21.6441 29.9559 22.2205 30.4262 22.6604C30.8054 23.0244 31.2756 23.2064 31.7913 23.2974C32.9289 23.4946 34.0514 23.4491 35.1739 23.2064C35.3407 23.1761 35.5227 23.1457 35.7047 23.1306C36.0536 23.1154 36.2508 23.2368 36.2811 23.5856C36.3115 24.0103 36.2963 24.4351 36.2811 24.8598C36.266 25.1783 36.0536 25.4058 35.7502 25.4968C35.28 25.6334 34.8098 25.7699 34.3244 25.8305C33.1261 25.9974 31.943 25.9367 30.7599 25.6637C29.9711 25.4817 29.2279 25.1631 28.606 24.6322C27.8779 24.0103 27.4532 23.2064 27.2256 22.2963C27.0891 21.7199 27.0284 21.1435 27.0284 20.552C27.0284 19.566 27.0284 18.5801 27.0284 17.6093C27.0436 16.6689 27.256 15.7739 27.7262 14.9397C28.3178 13.9234 29.1975 13.2712 30.2896 12.892C31.3969 12.5128 32.5346 12.4369 33.6874 12.5128C34.2486 12.5431 34.8098 12.6644 35.3559 12.8313C35.8716 12.983 36.0536 13.2105 36.0688 13.7414C36.0688 14.1206 36.0688 14.4846 36.0384 14.8638C35.9929 15.2431 35.7806 15.3796 35.4014 15.3037C35.0677 15.2431 34.7491 15.1369 34.4154 15.0762C33.4447 14.9094 32.4739 14.879 31.5183 15.1217C30.4868 15.3644 29.8801 16.0318 29.7739 17.0936C29.6981 17.7762 29.7132 18.4739 29.6829 18.9745L29.6677 18.9896Z" fill="#05146F"/>
<path d="M40.0882 9.75169H39.5877C39.7242 8.9326 39.8607 8.11351 39.9972 7.29442C39.9972 7.29442 39.982 7.29442 39.9669 7.29442C39.891 7.52195 39.8 7.74947 39.7242 7.977C39.527 8.53822 39.3298 9.08428 39.1478 9.64551C39.1175 9.73652 39.0871 9.78203 38.9809 9.76686C38.8596 9.76686 38.7231 9.76686 38.5714 9.76686V7.3551C38.5714 7.3551 38.5411 7.3551 38.5259 7.3551C38.3894 8.15902 38.2529 8.96294 38.1163 9.76686H37.6158C37.7978 8.72024 37.9647 7.67363 38.1467 6.61185H38.9354V8.99327C38.9354 8.99327 38.9658 8.99327 38.9961 8.99327C39.1023 8.70508 39.1933 8.43205 39.2995 8.14385C39.4663 7.67363 39.6332 7.20341 39.8 6.71803C39.8304 6.61185 39.8759 6.58151 39.9821 6.59668C40.1944 6.59668 40.3916 6.59668 40.6191 6.59668C40.4371 7.65846 40.2551 8.70508 40.0882 9.75169Z" fill="#05146F"/>
<path d="M37.7213 7.7043C37.7213 8.26553 37.5999 8.79642 37.2662 9.26664C36.9629 9.69135 36.5382 9.90371 36.0073 9.82787C35.5674 9.76719 35.2792 9.44866 35.2337 8.96327C35.1578 8.29587 35.2792 7.67397 35.6584 7.11274C35.9618 6.67286 36.3865 6.43016 36.9477 6.52117C37.4028 6.59702 37.691 6.94589 37.7213 7.46161C37.7213 7.53745 37.7213 7.62846 37.7213 7.7043ZM37.2056 7.84082C37.1752 7.7043 37.1752 7.55262 37.1297 7.41611C37.0387 7.12791 36.7809 7.00656 36.5078 7.09757C36.2955 7.15824 36.159 7.29476 36.0528 7.46161C35.8101 7.87115 35.7191 8.31104 35.7949 8.76609C35.8556 9.25147 36.3106 9.41832 36.6898 9.13012C36.796 9.03911 36.9022 8.91777 36.9629 8.79642C37.1297 8.50822 37.1904 8.17452 37.2207 7.84082H37.2056Z" fill="#05146F"/>
<path d="M30.8961 7.15833C30.4866 7.15833 30.0922 7.15833 29.6978 7.15833C29.5916 7.15833 29.5461 7.1735 29.531 7.29485C29.5158 7.4617 29.4703 7.62855 29.4399 7.82574H30.6686C30.6382 8.02293 30.6079 8.20495 30.5776 8.40213H29.3489C29.3034 8.67516 29.2579 8.93303 29.2124 9.20606H30.6079C30.5776 9.40324 30.5472 9.58526 30.5169 9.76728H28.5905C28.7725 8.72067 28.9394 7.67406 29.1214 6.62744H30.9871C30.9568 6.80946 30.9264 6.99148 30.8961 7.1735V7.15833Z" fill="#05146F"/>
<path d="M43.1065 6.59692H44.9722C44.9419 6.77894 44.9115 6.96096 44.8812 7.15815C44.6992 7.15815 44.5323 7.15815 44.3655 7.15815C44.1228 7.15815 43.8801 7.15815 43.6525 7.15815C43.607 7.15815 43.5464 7.20366 43.5464 7.24916C43.5009 7.43118 43.4857 7.6132 43.4402 7.81039H44.6688C44.6385 7.99241 44.6233 8.14409 44.5778 8.31094C44.5778 8.34128 44.502 8.38678 44.4565 8.38678C44.1228 8.38678 43.7891 8.38678 43.4705 8.38678C43.3795 8.38678 43.334 8.41712 43.3188 8.50813C43.2885 8.73566 43.243 8.94801 43.2127 9.19071H44.6082C44.5778 9.38789 44.5475 9.56991 44.5171 9.75193H42.5908C42.7728 8.70532 42.9396 7.65871 43.1217 6.59692H43.1065Z" fill="#05146F"/>
<path d="M42.6357 7.53738H42.1654C42.1654 7.53738 42.1503 7.52221 42.1503 7.50704C42.1503 7.34019 42.1199 7.1885 41.9531 7.11266C41.7559 7.03682 41.5587 7.05199 41.3767 7.17334C41.2402 7.26435 41.1947 7.41603 41.2098 7.58288C41.225 7.7194 41.3464 7.74973 41.4677 7.78007C41.6649 7.84074 41.8621 7.90142 42.0593 7.97726C42.4536 8.11377 42.575 8.32613 42.5446 8.73567C42.4688 9.52443 41.7711 10.025 41.0126 9.81262C40.5576 9.69128 40.3452 9.31207 40.4666 8.79635H40.952C40.952 8.79635 40.952 8.82668 40.952 8.84185C40.952 9.14522 41.0733 9.28173 41.3615 9.28173C41.498 9.28173 41.6497 9.2514 41.7711 9.19072C41.9379 9.11488 41.9986 8.9632 41.9834 8.78118C41.9834 8.61433 41.8469 8.56882 41.7256 8.53848C41.5739 8.49298 41.4222 8.44747 41.2705 8.40197C40.77 8.26545 40.6183 8.03793 40.6789 7.52221C40.7548 6.8548 41.2857 6.44526 41.9379 6.50593C42.4536 6.55143 42.7722 7.00648 42.6205 7.52221L42.6357 7.53738Z" fill="#05146F"/>
<path d="M33.3077 6.59692H33.8386C33.7628 7.00647 33.7021 7.41601 33.6414 7.81039C33.6414 7.81039 33.6718 7.82556 33.6718 7.84073C33.7173 7.79522 33.7476 7.73455 33.7931 7.68904C34.0965 7.35534 34.3998 7.02164 34.7184 6.68793C34.7639 6.64243 34.8549 6.59692 34.9307 6.59692C35.1128 6.59692 35.2796 6.59692 35.492 6.59692C35.3858 6.7031 35.2948 6.80928 35.2038 6.90029C34.9004 7.20366 34.6122 7.52219 34.3088 7.82556C34.2482 7.88623 34.2482 7.93173 34.2785 8.00758C34.506 8.55364 34.7335 9.09969 34.9611 9.64575C34.9611 9.67609 34.9914 9.7216 35.0066 9.7671H34.324C34.142 9.32722 33.9751 8.87217 33.7779 8.40195C33.6414 8.55364 33.4746 8.64465 33.4442 8.87217C33.4139 9.17554 33.3532 9.46373 33.2925 9.7671H32.7617C32.9437 8.72049 33.1105 7.67387 33.2925 6.61209L33.3077 6.59692Z" fill="#05146F"/>
<path d="M27.6047 7.15837H26.8463C26.8766 6.96118 26.9069 6.79432 26.9373 6.6123H29.0002C28.9698 6.79432 28.9395 6.97634 28.9092 7.17353C28.6968 7.17353 28.4844 7.17353 28.2721 7.17353C28.1659 7.17353 28.1356 7.20387 28.1204 7.31005C27.999 8.06846 27.8625 8.84205 27.726 9.60046C27.726 9.66114 27.7109 9.70664 27.6957 9.78248H27.1648C27.3165 8.91789 27.453 8.06846 27.6047 7.1887V7.15837Z" fill="#05146F"/>
<path d="M31.3967 9.19071H32.6556C32.6253 9.37273 32.6101 9.53958 32.5646 9.69126C32.5646 9.7216 32.5191 9.75193 32.4888 9.75193C31.9124 9.75193 31.336 9.75193 30.7596 9.75193C30.9416 8.69015 31.1236 7.64354 31.2905 6.59692H31.8214C31.6697 7.46152 31.5332 8.31094 31.3815 9.17554L31.3967 9.19071Z" fill="#05146F"/>
<path d="M44.7446 9.75193C44.9266 8.69015 45.1087 7.64354 45.2755 6.59692H45.8064C45.6547 7.46152 45.5182 8.31094 45.3665 9.17554H46.6255C46.5952 9.37273 46.5648 9.55475 46.5345 9.75193H44.7446Z" fill="#05146F"/>
<path d="M10.8131 18.0643V20.4002C10.8131 20.4002 10.7221 20.4002 10.6766 20.4002C10.0092 20.4002 9.3418 20.4002 8.67439 20.4002C8.55304 20.4002 8.52271 20.3699 8.52271 20.2485C8.52271 19.5659 8.52271 18.8834 8.52271 18.1856C8.52271 18.0946 8.5227 18.0339 8.64405 18.0339C9.3418 18.0339 10.0395 18.0339 10.7525 18.0339C10.7828 18.0339 10.798 18.0339 10.8283 18.0339L10.8131 18.0643Z" fill="white"/>
<path d="M8.53827 12.5276H10.8135V14.8484C10.8135 14.8484 10.7529 14.8484 10.7225 14.8484C10.0248 14.8484 9.32703 14.8484 8.62928 14.8484C8.53827 14.8484 8.50793 14.818 8.50793 14.727C8.50793 14.0293 8.50793 13.3164 8.50793 12.6186C8.50793 12.5883 8.50793 12.558 8.50793 12.5125L8.53827 12.5276Z" fill="white"/>
<path d="M11.2534 12.5278H13.5438C13.5438 12.5278 13.5438 12.6188 13.5438 12.6643C13.5438 13.3469 13.5438 14.0295 13.5438 14.7121C13.5438 14.8334 13.5134 14.8638 13.3921 14.8638C12.7247 14.8638 12.0421 14.8638 11.3747 14.8638C11.2837 14.8638 11.223 14.8638 11.223 14.7424C11.223 14.0295 11.223 13.3166 11.223 12.6188C11.223 12.5885 11.223 12.5582 11.223 12.5278H11.2534Z" fill="white"/>
<path d="M13.9832 14.8486V12.5278C13.9832 12.5278 14.0743 12.5278 14.1198 12.5278C14.7872 12.5278 15.4546 12.5278 16.122 12.5278C16.2433 12.5278 16.2888 12.5582 16.2737 12.6795C16.2737 13.3621 16.2737 14.0447 16.2737 14.7424C16.2737 14.8334 16.2737 14.8941 16.1523 14.8941C15.4546 14.8941 14.7568 14.8941 14.0439 14.8941C14.0136 14.8941 13.9984 14.8941 13.9681 14.8941L13.9832 14.8486Z" fill="white"/>
<path d="M8.52271 15.2886H10.8131V17.6245H8.52271V15.2886Z" fill="white"/>
<path d="M10.8131 23.176H8.52271V20.8552H10.8131V23.176Z" fill="white"/>
<path d="M16.6377 23.722V26.0427H14.3472C14.3472 26.0427 14.3472 25.9517 14.3472 25.8911C14.3472 25.2085 14.3472 24.5411 14.3472 23.8585C14.3472 23.7372 14.3776 23.6917 14.5141 23.6917C15.1815 23.6917 15.8489 23.6917 16.5163 23.6917C16.5618 23.6917 16.6073 23.6917 16.6528 23.6917L16.6377 23.722Z" fill="white"/>
<path d="M10.8131 9.75202V12.0728C10.8131 12.0728 10.7221 12.0728 10.6766 12.0728C10.0092 12.0728 9.3418 12.0728 8.67439 12.0728C8.53787 12.0728 8.52271 12.0273 8.52271 11.9059C8.52271 11.2385 8.52271 10.5559 8.52271 9.88853C8.52271 9.76718 8.55304 9.72168 8.67439 9.72168C9.3418 9.72168 10.0092 9.72168 10.6766 9.72168C10.7221 9.72168 10.7676 9.72168 10.8283 9.72168L10.8131 9.75202Z" fill="white"/>
<path d="M8.11284 12.5278V14.8486H5.83759V12.5278H8.11284Z" fill="white"/>
<path d="M19.0041 12.5278V14.8486H16.7289V12.5278H19.0041Z" fill="white"/>
<path d="M16.668 23.176V20.8552H18.9432V23.176H16.668Z" fill="white"/>
<path d="M11.6169 23.7222H13.8921V26.0429H11.6169V23.7222Z" fill="white"/>
</svg>
