<svg width="142" height="50" viewBox="0 0 142 50" fill="none" xmlns="http://www.w3.org/2000/svg">
<path d="M47.8823 10.8712C45.7584 7.09233 33.3857 10.3509 20.2507 18.1565C7.11276 25.959 -1.81356 35.3474 0.313328 39.1294C2.13898 42.3786 11.5353 40.421 22.48 34.858C22.9681 34.5823 22.935 33.9876 22.2962 34.2013C15.551 36.7567 9.92344 36.9147 8.46834 34.2013C6.53123 30.6021 12.6619 23.3106 22.1576 17.921C31.6533 12.5253 40.9201 11.0695 42.8572 14.6687C43.7399 16.3166 42.9326 18.7388 40.887 21.3995L40.8599 21.4397C40.1007 22.4031 40.652 22.6942 41.1942 22.2265C46.4301 17.4564 49.1597 13.1448 47.8823 10.8712Z" fill="#05146F"/>
<path d="M28.1829 35.7625C27.014 35.4373 26.056 34.9974 25.3239 34.443L26.6495 31.3641C27.4327 31.8721 28.2642 32.2624 29.1409 32.5318C30.0206 32.8013 30.9002 32.9376 31.7859 32.9376C32.6867 32.9376 33.3796 32.8075 33.8616 32.5566C34.3376 32.2995 34.5786 31.9402 34.5786 31.4787C34.5786 31.0605 34.3618 30.7198 33.9279 30.4441C33.4911 30.1778 32.6716 29.9114 31.4696 29.6512C29.9543 29.3383 28.7763 28.9574 27.9358 28.502C27.0923 28.0467 26.5079 27.5109 26.1644 26.8945C25.827 26.275 25.6613 25.5285 25.6613 24.6457C25.6613 23.6421 25.9385 22.7377 26.4958 21.9261C27.0532 21.1146 27.8304 20.4827 28.8366 20.0274C29.8428 19.5721 30.9876 19.3459 32.283 19.3459C33.4398 19.3459 34.5605 19.51 35.6481 19.8415C36.7387 20.173 37.5882 20.6097 38.2058 21.1518L36.8983 24.2306C36.1934 23.7195 35.4493 23.3324 34.669 23.0598C33.8887 22.7903 33.1085 22.654 32.3282 22.654C31.563 22.654 30.9454 22.8057 30.4815 23.1062C30.0145 23.4067 29.7825 23.8156 29.7825 24.3236C29.7825 24.6023 29.8639 24.8315 30.0296 25.0174C30.1953 25.2001 30.5056 25.386 30.9514 25.5625C31.4033 25.739 32.0782 25.928 32.9789 26.1294C34.437 26.4546 35.5818 26.8449 36.4163 27.2971C37.2478 27.7525 37.8383 28.2883 38.1817 28.8954C38.5281 29.5056 38.7029 30.2335 38.7029 31.0853C38.7029 32.6898 38.0913 33.9567 36.8772 34.8704C35.6602 35.7904 33.949 36.2488 31.7408 36.2488C30.5417 36.2488 29.3517 36.0847 28.1829 35.7625Z" fill="#05146F"/>
<path d="M52.8923 24.2769V36.038H48.8795V34.4428C48.5541 34.9972 48.0721 35.434 47.4425 35.7499C46.8098 36.0658 46.1169 36.2269 45.3698 36.2269C44.3907 36.2269 43.523 35.9791 42.7548 35.4835C41.9926 34.9879 41.3932 34.2848 40.9624 33.3649C40.5376 32.4511 40.3207 31.3856 40.3207 30.1838C40.3207 28.9634 40.5406 27.8823 40.9774 26.9407C41.4112 25.996 42.0107 25.265 42.7759 24.7384C43.5441 24.215 44.4058 23.9517 45.3698 23.9517C46.1169 23.9517 46.8068 24.1158 47.4274 24.4504C48.054 24.7818 48.536 25.2279 48.8795 25.7823V24.2769H52.8923ZM48.295 32.3365C48.6866 31.8254 48.8795 31.0944 48.8795 30.1373C48.8795 29.1616 48.6866 28.4182 48.295 27.9009C47.9064 27.3837 47.3491 27.1235 46.6291 27.1235C45.9241 27.1235 45.3698 27.393 44.9631 27.9226C44.5564 28.4554 44.3545 29.2081 44.3545 30.1838C44.3545 31.1192 44.5473 31.844 44.939 32.3489C45.3306 32.8476 45.894 33.0985 46.6291 33.0985C47.3491 33.0985 47.9064 32.8445 48.295 32.3365Z" fill="#05146F"/>
<path d="M55.5584 24.277V23.9518C55.5584 22.3597 55.9651 21.1207 56.7634 20.2256C57.5678 19.3304 58.7367 18.8782 60.2671 18.8782C61.1408 18.8782 61.8487 18.9896 62.385 19.2034V22.4248C61.9482 22.3164 61.5866 22.2607 61.3065 22.2607C60.8244 22.2607 60.4268 22.4032 60.1104 22.6912C59.7972 22.9762 59.6375 23.4099 59.6375 23.9984V24.2771H61.8668V27.356H59.6375V36.0382H55.5584V24.277Z" fill="#05146F"/>
<path d="M75.6736 24.2769V36.038H71.6638V34.4428C71.3354 34.9972 70.8564 35.434 70.2208 35.7499C69.5942 36.0658 68.9013 36.2269 68.1511 36.2269C67.175 36.2269 66.3074 35.9791 65.5392 35.4835C64.774 34.9879 64.1775 34.2848 63.7467 33.3649C63.3189 32.4511 63.108 31.3856 63.108 30.1838C63.108 28.9634 63.3249 27.8823 63.7587 26.9407C64.1925 25.996 64.7951 25.265 65.5603 24.7384C66.3285 24.215 67.1901 23.9517 68.1511 23.9517C68.9013 23.9517 69.5912 24.1158 70.2118 24.4504C70.8354 24.7818 71.3204 25.2279 71.6638 25.7823V24.2769H75.6736ZM71.0794 32.3365C71.471 31.8254 71.6638 31.0944 71.6638 30.1373C71.6638 29.1616 71.471 28.4182 71.0794 27.9009C70.6907 27.3837 70.1364 27.1235 69.4134 27.1235C68.7085 27.1235 68.1511 27.393 67.7474 27.9226C67.3407 28.4554 67.1389 29.2081 67.1389 30.1838C67.1389 31.1192 67.3348 31.844 67.7264 32.3489C68.115 32.8476 68.6783 33.0985 69.4134 33.0985C70.1364 33.0985 70.6907 32.8445 71.0794 32.3365Z" fill="#05146F"/>
<path d="M86.5852 24.2523V28.0745C85.9405 27.7648 85.3229 27.6099 84.7234 27.6099C83.0183 27.6099 82.1657 28.4524 82.1657 30.1344V36.0381H78.1047V27.6564C78.1047 26.3926 78.0446 25.2652 77.927 24.274H81.741L81.988 26.2439C82.2561 25.5191 82.6869 24.9616 83.2894 24.5744C83.8859 24.1934 84.5577 23.9983 85.3049 23.9983C85.8592 23.9983 86.2839 24.0851 86.5852 24.2523Z" fill="#05146F"/>
<path d="M87.7903 36.0381H91.8663V24.2739H87.7903V36.0381Z" fill="#05146F"/>
<path d="M95.4272 34.6039C94.3336 33.5229 93.7853 32.0516 93.7853 30.1838C93.7853 28.948 94.0474 27.8577 94.5807 26.9191C95.1169 25.9775 95.861 25.2465 96.825 24.7292C97.783 24.2119 98.8977 23.9548 100.157 23.9548C100.994 23.9548 101.823 24.0787 102.636 24.3327C103.444 24.5898 104.088 24.9337 104.57 25.3673L103.534 28.2572C103.13 27.9196 102.654 27.6501 102.118 27.4488C101.576 27.2474 101.058 27.1483 100.561 27.1483C99.7201 27.1483 99.0755 27.3961 98.6236 27.8886C98.1747 28.3811 97.9488 29.1183 97.9488 30.0878C97.9488 31.079 98.1747 31.8224 98.6236 32.3273C99.0755 32.826 99.7292 33.0769 100.585 33.0769C101.082 33.0769 101.594 32.9778 102.127 32.7734C102.66 32.5751 103.13 32.3025 103.534 31.9649L104.57 34.8115C104.076 35.2606 103.417 35.6075 102.603 35.8553C101.781 36.1031 100.907 36.2239 99.9762 36.2239C98.0391 36.2239 96.5238 35.6849 95.4272 34.6039Z" fill="#05146F"/>
<path d="M108.333 35.4835C107.387 34.991 106.658 34.2786 106.146 33.3525C105.634 32.4264 105.381 31.3391 105.381 30.0878C105.381 28.8364 105.634 27.7492 106.146 26.823C106.658 25.8969 107.387 25.1876 108.333 24.6951C109.279 24.1995 110.391 23.9517 111.668 23.9517C112.927 23.9517 114.027 24.2026 114.964 24.7075C115.904 25.2062 116.627 25.9186 117.136 26.8354C117.648 27.7523 117.901 28.8364 117.901 30.0878C117.901 31.3391 117.648 32.4263 117.136 33.3432C116.627 34.26 115.904 34.9724 114.964 35.4711C114.027 35.9729 112.927 36.2269 111.668 36.2269C110.391 36.2269 109.279 35.9791 108.333 35.4835ZM113.876 30.0878C113.876 29.0687 113.69 28.3191 113.319 27.8328C112.954 27.3465 112.4 27.1049 111.668 27.1049C110.915 27.1049 110.352 27.3465 109.975 27.8328C109.601 28.3191 109.412 29.0687 109.412 30.0878C109.412 31.1223 109.601 31.8843 109.975 32.3706C110.352 32.8569 110.915 33.1016 111.668 33.1016C113.138 33.1016 113.876 32.0949 113.876 30.0878Z" fill="#05146F"/>
<path d="M137.332 25.2031C137.971 26.0363 138.287 27.3094 138.287 29.0223V36.0381H134.214V29.14C134.214 28.4431 134.112 27.9413 133.907 27.6346C133.705 27.3249 133.362 27.17 132.883 27.17C132.31 27.17 131.871 27.3899 131.554 27.8205C131.238 28.2542 131.081 28.8582 131.081 29.648V36.0381H127.005V29.14C127.005 28.4431 126.897 27.9413 126.689 27.6346C126.478 27.3249 126.141 27.17 125.677 27.17C125.107 27.17 124.664 27.3899 124.36 27.8205C124.05 28.2542 123.896 28.8582 123.896 29.648V36.0381H119.814V27.6563C119.814 26.3926 119.76 25.262 119.64 24.277H123.469L123.67 25.9217C124.017 25.2868 124.502 24.8005 125.122 24.4597C125.746 24.1252 126.463 23.9548 127.273 23.9548C128.912 23.9548 130.024 24.6642 130.605 26.0828C131.015 25.4324 131.554 24.9182 132.217 24.531C132.886 24.1438 133.612 23.9548 134.392 23.9548C135.712 23.9548 136.691 24.3699 137.332 25.2031Z" fill="#05146F"/>
<path d="M87.7903 22.2822H91.8663V18.5095H87.7903V22.2822Z" fill="#05146F"/>
</svg>
