<svg width="136" height="50" viewBox="0 0 136 50" fill="none" xmlns="http://www.w3.org/2000/svg">
<path d="M111.614 39.5442L111.424 38.6935C111.37 38.4531 111.518 38.213 111.757 38.1532C112.41 37.9899 112.976 37.8056 113.454 37.6015C114.036 37.3536 114.541 37.0244 114.968 36.6138C115.394 36.2047 115.795 35.6935 116.17 35.0802C116.173 35.0765 116.174 35.0734 116.177 35.0697L116.723 34.121C116.786 34.0126 116.801 33.897 116.768 33.776L113.557 21.8481C113.519 21.7071 113.546 21.5696 113.636 21.4537C113.724 21.3376 113.85 21.2755 113.996 21.2755H115.229C115.44 21.2755 115.618 21.4145 115.67 21.6192L118.226 31.7728L118.24 31.7472C118.241 31.7447 118.243 31.7427 118.244 31.7402L124.046 21.5058C124.129 21.3595 124.273 21.2755 124.441 21.2755H125.617C125.784 21.2755 125.928 21.3585 126.011 21.5036C126.094 21.6485 126.093 21.8143 126.009 21.9587L118.278 35.2257C118.278 35.2278 118.276 35.2297 118.275 35.2319C117.779 36.0514 117.289 36.739 116.802 37.2938C116.315 37.8494 115.805 38.3027 115.276 38.6531C114.746 39.0036 114.19 39.2815 113.609 39.4868C113.154 39.6472 112.668 39.7817 112.151 39.8897C111.908 39.9405 111.669 39.7862 111.614 39.5442ZM129.691 24.5149V21.6896H128.589V21.2919H131.268V21.6896H130.166V24.5149H129.691ZM131.716 24.5149V21.2919H132.132L133.375 24.0943H133.238L134.482 21.2919H134.893V24.5149H134.463V21.9365H134.615L133.453 24.5149H133.156L131.995 21.9365H132.15V24.5149H131.716ZM72.098 34.4765C70.9274 34.4765 69.9306 34.1795 69.1077 33.5858C68.2848 32.992 67.7038 32.1563 67.3645 31.079C67.0251 30.0017 66.9656 28.7504 67.1863 27.3251C67.4239 25.917 67.8522 24.7505 68.4715 23.826C69.0907 22.9013 69.8542 22.2057 70.7619 21.7391C71.6697 21.2725 72.6833 21.0392 73.8031 21.0392C74.8381 21.0392 75.7246 21.2811 76.4627 21.7645C77.0506 22.1498 77.4695 22.652 77.6867 23.2851C77.6791 23.2851 77.6806 23.278 77.6849 23.2688C77.6971 23.2433 77.7057 23.2206 77.713 23.1934L78.14 21.6273C78.1943 21.4283 78.3687 21.2951 78.575 21.2949L81.3511 21.2938C81.4929 21.2938 81.6156 21.353 81.7035 21.4642C81.7922 21.5756 81.8223 21.7082 81.7898 21.8468C80.876 25.7871 80.3629 29.8153 79.7413 33.8149C79.7072 34.0362 79.5195 34.1965 79.2962 34.1965H76.3942C76.2573 34.1965 76.1395 34.1421 76.0509 34.038C75.9621 33.9338 75.9271 33.8089 75.949 33.6737L76.1101 32.6762C76.12 32.6147 76.1391 32.5638 76.1718 32.5108C76.7276 31.6131 76.9635 31.4935 76.1163 32.5961C75.7818 33.0309 75.3796 33.4036 74.9102 33.7129C74.1383 34.2219 73.2009 34.4765 72.098 34.4765ZM73.4468 31.5753C74.312 31.5753 75.0501 31.274 75.661 30.6718C76.2717 30.0695 76.6789 29.1491 76.8825 27.9106C77.103 26.5193 76.9842 25.5099 76.5262 24.8821C76.068 24.2544 75.3808 23.9405 74.4648 23.9405C73.5995 23.9405 72.8615 24.2373 72.2506 24.8312C71.64 25.4251 71.2327 26.3412 71.0291 27.5796C70.8086 28.971 70.9274 29.9847 71.3855 30.6209C71.8434 31.2571 72.5306 31.5753 73.4468 31.5753ZM0.958118 33.5084L4.68994 27.4742C4.77439 27.3377 4.91215 27.2608 5.07264 27.2604C6.36559 27.259 12.1734 27.2507 14.1111 27.2518C14.2563 27.2518 14.3812 27.1902 14.4693 27.075C14.5576 26.9596 14.5844 26.8229 14.5464 26.6829L12.8499 20.4285H12.7483L11.045 23.3564C10.9621 23.4991 10.8203 23.5806 10.6552 23.5806H7.90703C7.73901 23.5806 7.59478 23.496 7.51303 23.3492C7.43128 23.2023 7.43505 23.0352 7.52337 22.8925L11.4964 16.4686C11.5809 16.3318 11.7191 16.2548 11.8798 16.2548H14.5779C14.7792 16.2548 14.9501 16.3811 15.0091 16.5737L20.2298 33.6134C20.273 33.7547 20.249 33.8948 20.1611 34.0137C20.0732 34.1325 19.9462 34.1965 19.7984 34.1965H16.882C16.677 34.1965 16.5034 34.0651 16.4479 33.8675L15.5375 30.6238C15.4821 30.4262 15.3081 30.2945 15.103 30.2947L7.24656 30.3016C7.08294 30.3017 6.94238 30.3818 6.85901 30.5226L4.81188 33.9757C4.72829 34.1164 4.58773 34.1965 4.4239 34.1965H1.34178C1.17364 34.1965 1.02953 34.1119 0.947777 33.9652C0.865915 33.8184 0.869685 33.6512 0.958118 33.5084ZM24.4684 33.864L21.2019 21.8632C21.1637 21.7231 21.1906 21.5863 21.2787 21.4708C21.367 21.3556 21.4918 21.2937 21.6371 21.2937H24.6085C24.8205 21.2937 24.9994 21.4355 25.0477 21.6421L26.6395 28.454C26.6829 28.6396 26.8287 28.7724 27.0177 28.7982C27.2064 28.824 27.3826 28.7352 27.4742 28.5681L31.3298 21.5281C31.4109 21.3797 31.5561 21.2937 31.7252 21.2937H34.617C34.783 21.2937 34.9255 21.3762 35.0082 21.5201C35.0907 21.6641 35.0901 21.8287 35.0063 21.9721L27.9978 33.973C27.9146 34.1152 27.7732 34.1965 27.6084 34.1965H24.9037C24.6972 34.1965 24.5227 34.0632 24.4684 33.864ZM39.9302 34.4765C38.7597 34.4765 37.7628 34.1795 36.9399 33.5858C36.1172 32.992 35.5361 32.1563 35.1968 31.079C34.8574 30.0017 34.798 28.7504 35.0187 27.3251C35.2563 25.917 35.6845 24.7505 36.3038 23.826C36.9231 22.9013 37.6865 22.2057 38.5942 21.7391C39.5019 21.2725 40.5156 21.0392 41.6354 21.0392C42.6704 21.0392 43.5568 21.2811 44.295 21.7645C44.8829 22.1498 45.3018 22.652 45.519 23.2851C45.5113 23.2851 45.5128 23.278 45.5172 23.2688C45.5294 23.2433 45.5379 23.2206 45.5453 23.1934L45.9724 21.6273C46.0267 21.4283 46.2011 21.2951 46.4073 21.2949L49.183 21.2938C49.3252 21.2938 49.4476 21.353 49.5361 21.4642C49.6246 21.5756 49.6546 21.7082 49.6224 21.8468C48.7081 25.7871 48.1952 29.8153 47.5739 33.8149C47.5394 34.0362 47.3522 34.1965 47.1283 34.1965H44.2266C44.0897 34.1965 43.9719 34.1421 43.8832 34.038C43.7943 33.9338 43.7595 33.8089 43.7813 33.6737L43.9485 32.5961C43.6141 33.0309 43.2119 33.4036 42.7425 33.7129C41.9706 34.2218 41.0332 34.4765 39.9302 34.4765ZM41.2791 31.5753C42.1444 31.5753 42.8824 31.274 43.4933 30.6718C44.104 30.0695 44.5112 29.1491 44.7148 27.9106C44.9353 26.5193 44.8166 25.5099 44.3585 24.8821C43.9003 24.2544 43.2132 23.9405 42.2972 23.9405C41.4318 23.9405 40.6938 24.2373 40.0829 24.8312C39.4723 25.4251 39.065 26.3412 38.8614 27.5796C38.6409 28.971 38.7597 29.9847 39.2177 30.6209C39.6758 31.2571 40.3629 31.5753 41.2791 31.5753ZM56.0142 34.4765C54.8435 34.4765 53.8467 34.1795 53.0239 33.5858C52.201 32.992 51.62 32.1563 51.2807 31.079C50.9412 30.0017 50.8818 28.7504 51.1025 27.3251C51.3231 25.917 51.7471 24.7505 52.375 23.826C53.0027 22.9013 53.7703 22.2057 54.678 21.7391C55.5858 21.2725 56.5994 21.0392 57.7192 21.0392C58.7542 21.0392 59.6408 21.2811 60.3788 21.7645C60.582 21.8978 60.7651 22.045 60.9266 22.2065C61.0493 22.3294 61.2191 22.3702 61.3843 22.3169C61.5496 22.2633 61.6633 22.1307 61.6908 21.9592L62.5474 16.6278C62.5828 16.4075 62.7694 16.2484 62.9927 16.2484H65.9229C66.0595 16.2484 66.1772 16.3027 66.266 16.4065C66.3546 16.5105 66.3899 16.6352 66.3683 16.7701L63.6584 33.8164C63.6234 34.037 63.4365 34.1965 63.213 34.1965H60.3358C60.1989 34.1965 60.0811 34.1421 59.9923 34.038C59.9037 33.9336 59.8687 33.8087 59.8905 33.6736L60.073 32.5445C60.073 32.5347 60.0729 32.5425 60.0715 32.5444C60.0687 32.5479 60.0663 32.5511 60.0636 32.5547C59.7251 33.0046 59.3126 33.3923 58.8263 33.7129C58.0545 34.2216 57.1171 34.4765 56.0142 34.4765ZM57.363 31.5753C58.2282 31.5753 58.9663 31.274 59.5771 30.6718C60.1879 30.0695 60.5951 29.1491 60.7986 27.9106C61.0192 26.5193 60.9004 25.5099 60.4424 24.8821C59.9842 24.2544 59.297 23.9405 58.381 23.9405C57.5157 23.9405 56.7776 24.2373 56.1668 24.8312C55.5561 25.4251 55.1488 26.3412 54.9453 27.5796C54.7248 28.971 54.8435 29.9847 55.3016 30.6209C55.7596 31.2571 56.4467 31.5753 57.363 31.5753ZM83.5818 33.6258L84.9454 25.0417C84.9811 24.8193 85.1695 24.6586 85.3944 24.6586C87.6441 24.6587 89.8906 24.6613 92.1427 24.6613C93.4762 24.6613 94.5239 24.3877 95.2849 23.8404C96.0458 23.2934 96.5115 22.4724 96.6825 21.3781C96.8702 20.2153 96.6698 19.3305 96.0799 18.7233C95.4899 18.1162 94.5278 17.8128 93.1943 17.8128H88.5809C88.356 17.8128 88.1675 17.974 88.1319 18.1967L87.7597 20.5655C87.7249 20.7881 87.5364 20.9495 87.3107 20.9495H86.1285C85.9907 20.9495 85.8719 20.8948 85.7824 20.7899C85.6929 20.6852 85.6573 20.5597 85.6795 20.4235L86.3106 16.4517C86.3454 16.2293 86.5339 16.0686 86.7596 16.0686H93.5024C95.4686 16.0686 96.909 16.556 97.8236 17.5307C98.7382 18.5043 99.0502 19.8365 98.7612 21.5269C98.7604 21.5304 98.7596 21.5334 98.7596 21.5368C98.6052 22.5776 98.2464 23.461 97.6826 24.1867C97.1188 24.9134 96.3792 25.4693 95.4638 25.8539C94.5492 26.2387 93.4849 26.431 92.271 26.431H87.2466C87.0217 26.431 86.8332 26.5916 86.7976 26.8141L85.689 33.7686C85.6533 33.991 85.4649 34.1516 85.24 34.1516H84.0308C83.893 34.1516 83.7742 34.0969 83.6856 33.9921C83.5961 33.8873 83.5604 33.7619 83.5818 33.6258ZM102.914 34.3825C101.734 34.3825 100.742 34.1047 99.9387 33.549C99.1349 32.9932 98.5703 32.1936 98.2457 31.1505C97.921 30.1087 97.8695 28.8534 98.0904 27.3851C98.0912 27.3816 98.092 27.3786 98.092 27.3751C98.332 25.9925 98.7548 24.8312 99.3614 23.8918C99.968 22.9515 100.729 22.2417 101.644 21.7629C102.559 21.2839 103.58 21.0446 104.709 21.0446C105.837 21.0446 106.785 21.3375 107.556 21.9166C108.199 22.3994 108.581 22.9609 108.834 23.7194C108.842 23.7269 108.846 23.7289 108.846 23.7289C108.848 23.7141 108.838 23.6985 108.842 23.6837L109.344 21.6225C109.394 21.4162 109.573 21.2755 109.786 21.2755H110.851C110.996 21.2755 111.119 21.336 111.209 21.4498C111.297 21.5634 111.327 21.6985 111.292 21.8386C111.216 22.1494 111.137 22.4618 111.057 22.776C110.93 23.279 110.832 23.7697 110.763 24.2475C110.763 24.2498 110.762 24.2517 110.762 24.254L109.258 33.7679C109.223 33.9906 109.035 34.1516 108.809 34.1516H107.652C107.514 34.1516 107.396 34.0969 107.307 33.9922C107.218 33.8875 107.182 33.7619 107.203 33.6261L107.449 32.0745C107.45 32.0685 107.465 32.0461 107.438 32.0871C107.055 32.6475 106.586 33.1177 106.03 33.4975C105.167 34.0874 104.128 34.3825 102.914 34.3825ZM103.478 32.6896C104.658 32.6896 105.675 32.2706 106.53 31.4328C107.385 30.5949 107.941 29.3723 108.198 27.7649C108.471 26.0891 108.3 24.8278 107.685 23.9816C107.069 23.135 106.137 22.7117 104.889 22.7117C103.691 22.7117 102.67 23.1308 101.823 23.9687C100.977 24.8064 100.426 26.0292 100.169 27.6366C99.9125 29.3125 100.084 30.5734 100.682 31.4199C101.28 32.2664 102.213 32.6896 103.478 32.6896Z" fill="#05146F"/>
</svg>
