<svg width="80" height="50" viewBox="0 0 80 50" fill="none" xmlns="http://www.w3.org/2000/svg">
<g clip-path="url(#clip0_1292_15982)">
<mask id="mask0_1292_15982" style="mask-type:luminance" maskUnits="userSpaceOnUse" x="-30" y="-600" width="510" height="660">
<path d="M479.997 -599.246H-29.4981V59.3321H479.997V-599.246Z" fill="white"/>
</mask>
<g mask="url(#mask0_1292_15982)">
<mask id="mask1_1292_15982" style="mask-type:luminance" maskUnits="userSpaceOnUse" x="-30" y="-600" width="510" height="660">
<path d="M479.997 -599.246H-29.4981V59.3321H479.997V-599.246Z" fill="white"/>
</mask>
<g mask="url(#mask1_1292_15982)">
<path d="M20.986 15.1851H17.4937V34.9998H20.986V15.1851Z" fill="#05146F"/>
<mask id="mask2_1292_15982" style="mask-type:luminance" maskUnits="userSpaceOnUse" x="0" y="15" width="80" height="21">
<path d="M80 15.1851H0.472168V35.0172H80V15.1851Z" fill="white"/>
</mask>
<g mask="url(#mask2_1292_15982)">
<path d="M63.626 31.6173C63.365 31.6433 63.1015 31.6135 62.8529 31.5299C62.6043 31.4464 62.3763 31.3109 62.1842 31.1327C61.992 30.9544 61.8399 30.7373 61.7382 30.4959C61.6364 30.2544 61.5872 29.9941 61.5938 29.7322C61.5938 28.7726 62.1982 28.0043 63.6327 27.6118L71.1077 25.5596V31.6173H63.626ZM74.6551 20.2768C74.6551 17.7498 73.0491 15.1853 69.1397 15.1853H61.7728C60.5757 15.1853 60.1594 15.6784 60.0504 16.697C60.0046 17.1145 59.8506 18.5672 59.8506 18.5672H68.5461C70.3885 18.5672 71.1077 19.432 71.1077 20.8231V21.9756L63.7559 23.973C59.8248 25.0515 57.9308 26.757 57.9308 29.7414C57.9229 30.452 58.0607 31.1568 58.3358 31.8122C58.6108 32.4677 59.0173 33.06 59.5301 33.5526C60.043 34.0452 60.6514 34.4278 61.3179 34.6767C61.9843 34.9256 62.6947 35.0357 63.4054 35H74.6551V20.2768Z" fill="#05146F"/>
<path d="M49.0148 20.8235C49.0148 19.4323 49.7349 18.5667 51.5764 18.5667H57.4664C57.4664 18.5667 57.3108 17.114 57.2658 16.6965C57.1559 15.6787 56.7397 15.1848 55.5433 15.1848H50.9829C47.0734 15.1848 45.4683 17.7501 45.4683 20.2772V35.0004H49.0148V20.8235Z" fill="#05146F"/>
<path d="M35.337 18.5669C37.1793 18.5669 37.8986 19.4325 37.8986 20.8237V34.9998H41.4459V20.2766C41.4459 17.7504 39.84 15.1851 35.9306 15.1851H25.1238V34.9998H28.617V18.5669H35.337Z" fill="#05146F"/>
<path d="M12.712 24.5812C12.603 23.5618 12.1859 23.0695 10.9896 23.0695H4.019V20.8235C4.019 19.4324 4.73828 18.5667 6.57979 18.5667H14.9673C14.9673 18.5667 14.8116 17.114 14.7675 16.6974C14.6568 15.6788 14.2405 15.1865 13.0442 15.1865H5.98788C2.07676 15.1865 0.47168 17.7502 0.47168 20.2772V35.0004H4.019V26.4497H12.9127C12.9127 26.4497 12.757 24.9978 12.712 24.5812Z" fill="#05146F"/>
<path d="M78.42 31.8591C78.6923 31.8612 78.9596 31.9315 79.1976 32.0637C79.4471 32.1969 79.6525 32.3997 79.7887 32.6474C79.9268 32.8872 79.9997 33.1588 80.0001 33.4354C80.0006 33.712 79.9285 33.9839 79.7912 34.224C79.6572 34.4711 79.4545 34.6741 79.2076 34.8086C78.9678 34.9454 78.6965 35.0173 78.4204 35.0173C78.1444 35.0173 77.873 34.9454 77.6333 34.8086C77.3862 34.6737 77.1831 34.4708 77.048 34.224C76.9102 33.984 76.8378 33.7121 76.8383 33.4354C76.8387 33.1587 76.9119 32.887 77.0505 32.6474C77.1872 32.3992 77.3935 32.1963 77.6441 32.0637C77.8814 31.9315 78.1483 31.8611 78.42 31.8591ZM78.42 32.1211C78.193 32.1226 77.9699 32.1813 77.7715 32.2915C77.5637 32.4036 77.3924 32.5726 77.2778 32.7788C77.1624 32.9801 77.1013 33.2079 77.1005 33.4399C77.1011 33.6692 77.1613 33.8944 77.2753 34.0935C77.3884 34.299 77.5576 34.4683 77.7632 34.5816C77.963 34.696 78.1893 34.7562 78.4196 34.7562C78.6499 34.7562 78.8762 34.696 79.076 34.5816C79.2822 34.4688 79.4518 34.2994 79.5647 34.0935C79.6793 33.8932 79.7393 33.6664 79.7387 33.4357C79.7381 33.205 79.677 32.9785 79.5614 32.7788C79.4472 32.5723 79.2758 32.4031 79.0677 32.2915C78.8695 32.1816 78.6468 32.123 78.42 32.1211ZM77.7274 34.3122V32.6133H78.311C78.4571 32.6064 78.6034 32.6221 78.7447 32.6599C78.8325 32.6893 78.9079 32.7472 78.9587 32.8245C79.0101 32.8972 79.0378 32.9841 79.0377 33.0732C79.0384 33.1333 79.0271 33.193 79.0043 33.2487C78.9816 33.3044 78.948 33.355 78.9054 33.3975C78.8112 33.4918 78.6848 33.547 78.5516 33.5521C78.6055 33.5723 78.6547 33.6031 78.6964 33.6428C78.7924 33.7456 78.877 33.8585 78.9487 33.9796L79.1543 34.3122H78.8205L78.6689 34.0444C78.5981 33.8961 78.5008 33.762 78.3817 33.6486C78.3172 33.6055 78.2402 33.585 78.1628 33.5904H78.0013V34.3122H77.7274ZM78.0013 33.3559H78.3334C78.4474 33.3674 78.5621 33.3421 78.6606 33.2836C78.7068 33.2448 78.7368 33.1904 78.745 33.1307C78.7531 33.0711 78.7388 33.0106 78.7047 32.9609C78.6763 32.9199 78.6355 32.889 78.5882 32.8728C78.4989 32.8476 78.4061 32.8375 78.3135 32.8428H78.0013V33.3559Z" fill="#05146F"/>
</g>
</g>
</g>
</g>
<defs>
<clipPath id="clip0_1292_15982">
<rect width="80" height="20" fill="white" transform="translate(0 15)"/>
</clipPath>
</defs>
</svg>
