<svg width="131" height="32" viewBox="0 0 131 32" fill="none" xmlns="http://www.w3.org/2000/svg">
<path fill-rule="evenodd" clip-rule="evenodd" d="M29.2767 7.10323C28.6633 7.19896 27.0973 7.69617 26.4962 7.98589C25.5459 8.44406 24.7141 9.05238 24.0129 9.80202C23.228 10.641 22.7877 11.3875 22.3246 12.6645L21.9755 13.6272L21.9733 19.3339L21.9711 25.0406L22.2286 25.2492C22.4617 25.438 22.6794 25.4577 24.5359 25.4577H26.5858L26.8681 25.1222L27.1504 24.7868V19.9658C27.1504 14.7301 27.1851 14.3587 27.7586 13.4501C28.187 12.7715 28.6706 12.3368 29.3902 11.9835C29.97 11.6988 30.1514 11.6645 31.0758 11.6645C31.9501 11.6645 32.1949 11.7055 32.6458 11.9274C33.6591 12.4261 34.379 13.2545 34.7417 14.339C34.9199 14.8716 34.9474 15.4781 34.9985 19.9883L35.0556 25.0411L35.3131 25.2494C35.5454 25.4375 35.7641 25.4577 37.5609 25.4577C39.4094 25.4577 39.5718 25.4416 39.8386 25.2317L40.1259 25.0058V19.6259C40.1259 13.4046 40.0992 13.1437 39.2959 11.5252C38.301 9.52059 36.5513 8.15468 34.0198 7.40657C33.1059 7.13648 32.7848 7.09756 31.2938 7.0763C30.3643 7.06299 29.4566 7.0752 29.2767 7.10323ZM62.0175 7.4166C60.8918 7.72561 60.3473 7.98818 59.5294 8.61634C58.7851 9.18803 58.5533 9.13373 58.5533 8.38791C58.5533 8.04804 58.4879 7.83738 58.3352 7.68462C58.1328 7.48224 57.9718 7.46654 56.0999 7.46654C54.2281 7.46654 54.067 7.48224 53.8646 7.68462C53.6493 7.89997 53.6466 8.04804 53.6466 19.6837V31.4647L53.9142 31.7323C54.1792 31.9974 54.2019 32 56.2123 32H58.2429L58.5617 31.6813L58.8804 31.3626V27.698C58.8804 24.4877 58.9013 24.0253 59.0495 23.9685C59.1425 23.9329 59.3264 23.9993 59.4584 24.1161C59.92 24.5254 60.8176 25.0262 61.6174 25.3206C62.3839 25.6028 62.5194 25.6174 64.3323 25.6131C66.1238 25.6089 66.2968 25.59 67.1629 25.3031C68.7096 24.7909 69.9881 23.9773 70.9759 22.8769C71.2897 22.5272 71.6411 22.0694 71.7568 21.8595C71.8725 21.6496 72.015 21.4043 72.0736 21.3143C72.6742 20.3912 73.271 17.9454 73.271 16.4076C73.271 14.9024 72.8543 13.1281 72.1923 11.8152C71.6083 10.6569 71.5123 10.5254 70.5474 9.56279C68.4948 7.51506 64.9285 6.61768 62.0175 7.4166ZM82.0509 7.45771C79.7189 8.05098 78.0685 9.12173 76.7885 10.8718C76.1496 11.7453 75.8187 12.4013 75.434 13.5561C75.0968 14.5688 75.0835 14.6763 75.0809 16.4076C75.0783 18.1395 75.0912 18.2459 75.4244 19.2547C75.9498 20.8448 76.616 21.9296 77.6767 22.9219C78.9376 24.1013 80.098 24.7513 81.9418 25.3107C82.88 25.5952 83.0264 25.6083 85.2675 25.6083C87.5127 25.6083 87.6533 25.5957 88.5931 25.3091C89.8522 24.9252 90.9825 24.3414 91.7483 23.6796C92.695 22.8615 92.6585 22.7331 90.9737 20.9599C90.1668 20.1107 89.8399 20.0275 89.1498 20.4958C88.0627 21.2335 87.0124 21.5285 85.4636 21.5308C84.177 21.5327 83.4532 21.389 82.6058 20.9631C81.4724 20.3936 80.3608 19.0387 80.3608 18.2268V17.9341L86.7122 17.9339C92.5418 17.9338 93.0947 17.9181 93.4421 17.7431C93.86 17.5328 93.963 17.2898 93.9796 16.4761C94.0075 15.1117 93.3392 12.3123 92.8439 11.719C92.7689 11.6291 92.6041 11.3498 92.4777 11.0985C92.3513 10.8471 91.9088 10.2976 91.4943 9.87725C90.2128 8.57774 88.9474 7.87958 87.0525 7.42652C85.3573 7.02123 83.727 7.03137 82.0509 7.45771ZM101.241 7.41922C97.3739 8.26077 95.4001 10.5881 95.832 13.7973C95.9751 14.8603 96.3412 15.6145 97.0489 16.3037C98.1251 17.3521 99.479 17.8321 103.015 18.4192C106.037 18.9207 106.627 19.2084 106.635 20.182C106.639 20.6841 106.367 21.1147 105.889 21.3619C105.472 21.5773 104.028 21.8595 103.343 21.8595C102.272 21.8595 99.8932 21.3698 98.8427 20.9333C97.5497 20.3961 97.1684 20.3469 96.8673 20.6785C96.5379 21.0413 95.626 23.099 95.626 23.4795C95.626 23.9368 95.9803 24.2229 97.0659 24.6427C98.7266 25.2847 100.339 25.5866 102.441 25.6489C105.129 25.7286 106.619 25.4854 108.37 24.6811C109.583 24.1238 110.651 23.1239 111.149 22.0776C111.474 21.3973 111.487 21.3119 111.486 19.9513C111.486 18.643 111.463 18.4864 111.195 17.9177C110.299 16.0221 108.476 15.1702 103.896 14.508C103.257 14.4156 102.403 14.2197 101.998 14.0726C100.53 13.5397 100.251 12.4955 101.353 11.6552C101.867 11.2631 102.76 11.0686 104.056 11.0665C105.468 11.0642 106.46 11.2281 107.749 11.6767C108.333 11.8798 108.883 12.0461 108.973 12.0461C109.062 12.0461 109.255 11.9357 109.402 11.8008C109.739 11.4919 110.81 9.14289 110.729 8.88905C110.548 8.31682 109.292 7.81557 107.026 7.41104C104.965 7.04304 102.957 7.04587 101.241 7.41922ZM118.524 7.46829C116.988 7.78897 116.306 8.0126 115.179 8.56608C113.993 9.14834 113.962 9.3252 114.76 10.9012C115.632 12.6209 115.839 12.7394 116.973 12.1681C119.048 11.1232 121.946 10.9571 123.569 11.7899C124.34 12.1853 124.976 13.1355 125.135 14.1269C125.254 14.8739 125.23 14.8811 122.618 14.8811C119.6 14.8811 118.197 15.0226 116.943 15.4534C115.177 16.0603 114.145 16.9646 113.58 18.3988C113.174 19.4303 113.166 20.9187 113.56 22.0056C114.145 23.6188 115.267 24.6492 117.161 25.3123C117.987 25.6017 118.134 25.6178 119.941 25.6196C121.782 25.6212 121.881 25.61 122.722 25.3023C123.627 24.9711 124.561 24.4051 124.826 24.0277C125.058 23.6955 125.441 23.7987 125.478 24.2038C125.531 24.7832 125.612 25.0226 125.832 25.2424C126.03 25.4399 126.201 25.4577 127.895 25.4577C129.691 25.4577 129.751 25.4504 130.049 25.1945L130.355 24.9313V19.6064C130.355 13.4259 130.283 12.6866 129.528 11.1034C128.573 9.09872 126.995 7.96168 124.408 7.41562C122.544 7.02199 120.577 7.03966 118.524 7.46829ZM44.5588 7.66597C44.3942 7.84795 44.3784 8.61394 44.3784 16.4355V25.0058L44.6657 25.2317C44.9326 25.4417 45.0947 25.4577 46.9555 25.4577C48.804 25.4577 48.9745 25.4412 49.1733 25.2424C49.2917 25.124 49.4159 24.9155 49.4493 24.779C49.4827 24.6426 49.4963 20.7948 49.4794 16.2283C49.4498 8.23994 49.4408 7.91687 49.2409 7.69607C49.0431 7.47755 48.9302 7.46654 46.8862 7.46654C44.9448 7.46654 44.722 7.48562 44.5588 7.66597ZM16.8492 7.90923C16.6708 7.96244 15.9943 8.08402 15.346 8.17943C13.8801 8.39521 13.3947 8.55855 13.2225 8.89417C13.1225 9.08891 13.0874 10.24 13.0862 13.3546C13.0846 17.463 13.079 17.5704 12.8255 18.3919C12.6831 18.8536 12.4255 19.4231 12.2532 19.6574C10.511 22.0252 6.98936 21.7061 5.66172 19.06L5.28838 18.3158L5.23288 14.554C5.20235 12.485 5.13834 10.7132 5.0908 10.6167C4.86836 10.1657 4.58083 10.1462 2.66177 10.452C0.519834 10.7934 0.142999 10.9367 0.0474825 11.4459C0.0104097 11.6432 -5.79543e-05 13.466 0.0241484 15.4964L0.0681996 19.1881L0.373723 20.1149C1.18736 22.5834 2.87058 24.2765 5.46513 25.2362C6.91249 25.7716 9.23521 25.9535 11.0702 25.6754C12.6503 25.4358 14.433 24.6236 15.6583 23.5851C16.8273 22.5942 17.8442 20.7737 18.0963 19.2207C18.1608 18.823 18.208 16.3684 18.2085 13.3898L18.2093 8.24561L17.922 8.01969C17.6162 7.77904 17.3702 7.75364 16.8492 7.90923ZM83.3722 11.186C81.8271 11.5488 80.3371 13.1065 80.3142 14.383L80.3063 14.8266H84.6133H88.9202L88.9526 14.4425C88.9924 13.9704 88.4777 12.9419 87.9011 12.3414C87.3856 11.8045 86.5597 11.3438 85.8346 11.1885C85.1626 11.0446 83.9797 11.0434 83.3722 11.186ZM61.8244 11.6441C59.7398 12.3454 58.5983 14.3628 58.8141 16.9645C58.8908 17.8896 59.149 18.8803 59.3816 19.1422C59.4658 19.2368 59.5346 19.3685 59.5346 19.4347C59.5346 19.6847 60.6183 20.6541 61.2896 21.0043C61.9728 21.361 62.0174 21.3688 63.3509 21.3688C64.6088 21.3688 64.762 21.3459 65.3369 21.0723C66.9538 20.3026 67.8879 18.7874 68.0109 16.7347C68.1106 15.0704 67.5008 13.4394 66.418 12.4744C65.2701 11.4511 63.4017 11.1135 61.8244 11.6441ZM119.905 18.0894C118.981 18.3397 118.459 18.8738 118.35 19.6798C118.201 20.7835 118.8 21.6991 119.887 22.0285C120.447 22.1983 121.839 22.2543 122.404 22.1299C123.511 21.8862 124.325 21.3021 124.859 20.3687C125.159 19.8442 125.182 19.7298 125.152 18.8943L125.121 17.9887L122.776 17.9677C121.127 17.953 120.276 17.989 119.905 18.0894Z" fill="white"/>
<path d="M13.5207 0.637733C14.3902 0.484863 15.5924 0.270822 16.1921 0.16222C18.1842 -0.198367 18.2093 -0.169036 18.2093 2.52463C18.2093 3.63136 18.1621 4.62502 18.1044 4.73286C17.9476 5.02584 17.5537 5.1472 15.7559 5.45709C13.9177 5.77384 12.05 6.10324 9.32272 6.59184C3.68329 7.60207 1.40244 8.00769 0.925184 8.08522C0.676906 8.12556 0.523272 8.07094 0.298218 7.86235L0 7.58594V5.62522C0 4.54673 0.0449235 3.5462 0.0998785 3.40173C0.154833 3.25725 0.33878 3.08748 0.50877 3.02435C0.871102 2.8898 2.78809 2.53324 6.54226 1.90224C7.23192 1.78634 8.16419 1.61678 8.61397 1.52552C9.40057 1.36578 10.0661 1.2454 13.5207 0.637733Z" fill="#FF6E01"/>
</svg>
