<svg width="131" height="32" viewBox="0 0 131 32" fill="none" xmlns="http://www.w3.org/2000/svg">
<path fill-rule="evenodd" clip-rule="evenodd" d="M29.2768 7.10323C28.6634 7.19896 27.0974 7.69617 26.4963 7.98589C25.5461 8.44406 24.7142 9.05238 24.013 9.80202C23.2281 10.641 22.7878 11.3875 22.3248 12.6645L21.9756 13.6272L21.9734 19.3339L21.9713 25.0406L22.2287 25.2492C22.4618 25.438 22.6796 25.4577 24.536 25.4577H26.5859L26.8682 25.1222L27.1505 24.7868V19.9658C27.1505 14.7301 27.1852 14.3587 27.7588 13.4501C28.1872 12.7715 28.6707 12.3368 29.3903 11.9835C29.9701 11.6988 30.1515 11.6645 31.0759 11.6645C31.9503 11.6645 32.1951 11.7055 32.6459 11.9274C33.6592 12.4261 34.3791 13.2545 34.7418 14.339C34.92 14.8716 34.9475 15.4781 34.9986 19.9883L35.0558 25.0411L35.3132 25.2494C35.5456 25.4375 35.7642 25.4577 37.561 25.4577C39.4095 25.4577 39.5719 25.4416 39.8387 25.2317L40.126 25.0058V19.6259C40.126 13.4046 40.0993 13.1437 39.296 11.5252C38.3012 9.52059 36.5514 8.15468 34.0199 7.40657C33.1061 7.13648 32.785 7.09756 31.294 7.0763C30.3644 7.06299 29.4567 7.0752 29.2768 7.10323ZM62.0176 7.4166C60.8919 7.72561 60.3474 7.98818 59.5295 8.61634C58.7852 9.18803 58.5534 9.13373 58.5534 8.38791C58.5534 8.04804 58.4881 7.83738 58.3353 7.68462C58.1329 7.48224 57.9719 7.46654 56.1 7.46654C54.2282 7.46654 54.0671 7.48224 53.8648 7.68462C53.6494 7.89997 53.6467 8.04804 53.6467 19.6837V31.4647L53.9144 31.7323C54.1793 31.9974 54.202 32 56.2124 32H58.2431L58.5618 31.6813L58.8805 31.3626V27.698C58.8805 24.4877 58.9014 24.0253 59.0496 23.9685C59.1426 23.9329 59.3266 23.9993 59.4585 24.1161C59.9202 24.5254 60.8178 25.0262 61.6175 25.3206C62.384 25.6028 62.5195 25.6174 64.3324 25.6131C66.124 25.6089 66.2969 25.59 67.163 25.3031C68.7097 24.7909 69.9883 23.9773 70.976 22.8769C71.2898 22.5272 71.6413 22.0694 71.757 21.8595C71.8726 21.6496 72.0152 21.4043 72.0737 21.3143C72.6743 20.3912 73.2712 17.9454 73.2712 16.4076C73.2712 14.9024 72.8544 13.1281 72.1925 11.8152C71.6085 10.6569 71.5124 10.5254 70.5475 9.56279C68.4949 7.51506 64.9286 6.61768 62.0176 7.4166ZM82.051 7.45771C79.719 8.05098 78.0686 9.12173 76.7886 10.8718C76.1498 11.7453 75.8188 12.4013 75.4341 13.5561C75.0969 14.5688 75.0836 14.6763 75.081 16.4076C75.0785 18.1395 75.0913 18.2459 75.4246 19.2547C75.9499 20.8448 76.6161 21.9296 77.6768 22.9219C78.9377 24.1013 80.0981 24.7513 81.9419 25.3107C82.8801 25.5952 83.0265 25.6083 85.2676 25.6083C87.5128 25.6083 87.6535 25.5957 88.5932 25.3091C89.8523 24.9252 90.9826 24.3414 91.7485 23.6796C92.6951 22.8615 92.6586 22.7331 90.9739 20.9599C90.1669 20.1107 89.84 20.0275 89.1499 20.4958C88.0628 21.2335 87.0125 21.5285 85.4638 21.5308C84.1771 21.5327 83.4533 21.389 82.6059 20.9631C81.4725 20.3936 80.3609 19.0387 80.3609 18.2268V17.9341L86.7123 17.9339C92.5419 17.9338 93.0949 17.9181 93.4423 17.7431C93.8601 17.5328 93.9631 17.2898 93.9797 16.4761C94.0076 15.1117 93.3393 12.3123 92.8441 11.719C92.7691 11.6291 92.6042 11.3498 92.4778 11.0985C92.3514 10.8471 91.909 10.2976 91.4944 9.87725C90.2129 8.57774 88.9475 7.87958 87.0527 7.42652C85.3574 7.02123 83.7271 7.03137 82.051 7.45771ZM101.242 7.41922C97.374 8.26077 95.4002 10.5881 95.8321 13.7973C95.9752 14.8603 96.3413 15.6145 97.049 16.3037C98.1252 17.3521 99.4791 17.8321 103.016 18.4192C106.037 18.9207 106.628 19.2084 106.635 20.182C106.639 20.6841 106.367 21.1147 105.889 21.3619C105.473 21.5773 104.028 21.8595 103.343 21.8595C102.272 21.8595 99.8934 21.3698 98.8428 20.9333C97.5498 20.3961 97.1685 20.3469 96.8675 20.6785C96.5381 21.0413 95.6262 23.099 95.6262 23.4795C95.6262 23.9368 95.9804 24.2229 97.066 24.6427C98.7268 25.2847 100.339 25.5866 102.441 25.6489C105.129 25.7286 106.619 25.4854 108.37 24.6811C109.583 24.1238 110.651 23.1239 111.149 22.0776C111.474 21.3973 111.487 21.3119 111.486 19.9513C111.486 18.643 111.463 18.4864 111.195 17.9177C110.299 16.0221 108.476 15.1702 103.896 14.508C103.258 14.4156 102.403 14.2197 101.998 14.0726C100.53 13.5397 100.251 12.4955 101.353 11.6552C101.867 11.2631 102.76 11.0686 104.056 11.0665C105.469 11.0642 106.461 11.2281 107.749 11.6767C108.333 11.8798 108.884 12.0461 108.973 12.0461C109.062 12.0461 109.255 11.9357 109.402 11.8008C109.739 11.4919 110.81 9.14289 110.73 8.88905C110.548 8.31682 109.292 7.81557 107.026 7.41104C104.965 7.04304 102.957 7.04587 101.242 7.41922ZM118.524 7.46829C116.988 7.78897 116.306 8.0126 115.179 8.56608C113.993 9.14834 113.962 9.3252 114.76 10.9012C115.632 12.6209 115.839 12.7394 116.973 12.1681C119.048 11.1232 121.946 10.9571 123.569 11.7899C124.34 12.1853 124.976 13.1355 125.135 14.1269C125.254 14.8739 125.23 14.8811 122.619 14.8811C119.6 14.8811 118.197 15.0226 116.943 15.4534C115.177 16.0603 114.145 16.9646 113.58 18.3988C113.174 19.4303 113.166 20.9187 113.56 22.0056C114.146 23.6188 115.268 24.6492 117.161 25.3123C117.987 25.6017 118.134 25.6178 119.942 25.6196C121.782 25.6212 121.881 25.61 122.722 25.3023C123.627 24.9711 124.561 24.4051 124.826 24.0277C125.058 23.6955 125.441 23.7987 125.478 24.2038C125.531 24.7832 125.613 25.0226 125.832 25.2424C126.03 25.4399 126.201 25.4577 127.895 25.4577C129.691 25.4577 129.751 25.4504 130.049 25.1945L130.355 24.9313V19.6064C130.355 13.4259 130.283 12.6866 129.528 11.1034C128.573 9.09872 126.995 7.96168 124.408 7.41562C122.544 7.02199 120.578 7.03966 118.524 7.46829ZM44.5589 7.66597C44.3943 7.84795 44.3785 8.61394 44.3785 16.4355V25.0058L44.6658 25.2317C44.9327 25.4417 45.0949 25.4577 46.9556 25.4577C48.8041 25.4577 48.9746 25.4412 49.1734 25.2424C49.2918 25.124 49.416 24.9155 49.4494 24.779C49.4829 24.6426 49.4964 20.7948 49.4795 16.2283C49.4499 8.23994 49.4409 7.91687 49.241 7.69607C49.0432 7.47755 48.9304 7.46654 46.8863 7.46654C44.9449 7.46654 44.7222 7.48562 44.5589 7.66597ZM16.8493 7.90923C16.6709 7.96244 15.9945 8.08402 15.3461 8.17943C13.8802 8.39521 13.3948 8.55855 13.2226 8.89417C13.1226 9.08891 13.0875 10.24 13.0863 13.3546C13.0847 17.463 13.0791 17.5704 12.8256 18.3919C12.6832 18.8536 12.4257 19.4231 12.2533 19.6574C10.5111 22.0252 6.98948 21.7061 5.66184 19.06L5.2885 18.3158L5.233 14.554C5.20247 12.485 5.13846 10.7132 5.09092 10.6167C4.86848 10.1657 4.58095 10.1462 2.66189 10.452C0.519956 10.7934 0.143122 10.9367 0.0476046 11.4459C0.0105318 11.6432 6.4116e-05 13.466 0.0242705 15.4964L0.0683217 19.1881L0.373845 20.1149C1.18748 22.5834 2.8707 24.2765 5.46525 25.2362C6.91261 25.7716 9.23533 25.9535 11.0703 25.6754C12.6504 25.4358 14.4332 24.6236 15.6584 23.5851C16.8274 22.5942 17.8443 20.7737 18.0964 19.2207C18.1609 18.823 18.2081 16.3684 18.2086 13.3898L18.2095 8.24561L17.9221 8.01969C17.6163 7.77904 17.3703 7.75364 16.8493 7.90923ZM83.3723 11.186C81.8272 11.5488 80.3372 13.1065 80.3143 14.383L80.3064 14.8266H84.6134H88.9204L88.9527 14.4425C88.9925 13.9704 88.4778 12.9419 87.9012 12.3414C87.3858 11.8045 86.5598 11.3438 85.8347 11.1885C85.1627 11.0446 83.9799 11.0434 83.3723 11.186ZM61.8245 11.6441C59.7399 12.3454 58.5984 14.3628 58.8142 16.9645C58.891 17.8896 59.1492 18.8803 59.3817 19.1422C59.4659 19.2368 59.5347 19.3685 59.5347 19.4347C59.5347 19.6847 60.6184 20.6541 61.2897 21.0043C61.9729 21.361 62.0175 21.3688 63.351 21.3688C64.6089 21.3688 64.7621 21.3459 65.337 21.0723C66.954 20.3026 67.888 18.7874 68.011 16.7347C68.1107 15.0704 67.5009 13.4394 66.4182 12.4744C65.2702 11.4511 63.4018 11.1135 61.8245 11.6441ZM119.905 18.0894C118.981 18.3397 118.459 18.8738 118.35 19.6798C118.201 20.7835 118.8 21.6991 119.887 22.0285C120.447 22.1983 121.839 22.2543 122.404 22.1299C123.511 21.8862 124.325 21.3021 124.859 20.3687C125.159 19.8442 125.182 19.7298 125.153 18.8943L125.121 17.9887L122.777 17.9677C121.127 17.953 120.276 17.989 119.905 18.0894Z" fill="#05146F"/>
<path d="M13.5207 0.637733C14.3902 0.484863 15.5924 0.270822 16.1921 0.16222C18.1842 -0.198367 18.2093 -0.169036 18.2093 2.52463C18.2093 3.63136 18.1621 4.62502 18.1044 4.73286C17.9476 5.02584 17.5537 5.1472 15.7559 5.45709C13.9177 5.77384 12.05 6.10324 9.32272 6.59184C3.68329 7.60207 1.40244 8.00769 0.925184 8.08522C0.676906 8.12556 0.523272 8.07094 0.298218 7.86235L0 7.58594V5.62522C0 4.54673 0.0449235 3.5462 0.0998785 3.40173C0.154833 3.25725 0.33878 3.08748 0.50877 3.02435C0.871102 2.8898 2.78809 2.53324 6.54226 1.90224C7.23192 1.78634 8.16419 1.61678 8.61397 1.52552C9.40057 1.36578 10.0661 1.2454 13.5207 0.637733Z" fill="#FF6E01"/>
</svg>
